<svg width="140" height="46" viewBox="0 0 140 46" fill="none" xmlns="http://www.w3.org/2000/svg">
<path d="M25.5738 1.10741C24.918 0.340741 24.0164 0 22.9508 0H3.60656C2.62295 0 1.72131 0.340741 1.06557 1.10741C0.327869 1.87407 0 2.72593 0 3.83333C0 4.94074 0.327869 5.79259 1.06557 6.47407C1.80328 7.15556 2.62295 7.4963 3.60656 7.4963H9.67213V31.8593C9.67213 32.9667 10 33.8185 10.6557 34.5852C11.3115 35.2667 12.2131 35.6926 13.2787 35.6926C14.3443 35.6926 15.1639 35.3519 15.9016 34.5852C16.5574 33.8185 16.8852 32.9667 16.8852 31.8593V7.58148H22.9508C24.0164 7.58148 24.8361 7.24074 25.5738 6.55926C26.2295 5.87778 26.6393 4.94074 26.6393 3.91852C26.6393 2.72593 26.3115 1.87407 25.5738 1.10741ZM24.8361 2.81111C24.8361 2.8963 24.7541 2.98148 24.6721 3.15185C24.5902 3.23704 24.5082 3.32222 24.4262 3.32222H24.3443C24.0164 2.55556 23.4426 2.21481 22.7869 2.21481C22.541 2.21481 22.377 2.21481 22.1311 2.21481C21.8852 2.21481 21.8033 2.12963 21.7213 1.95926V1.87407C21.7213 1.7037 21.8033 1.61852 21.8852 1.44815H22.9508C23.1967 1.44815 23.4426 1.44815 23.6885 1.61852C24.2623 1.78889 24.5902 2.21482 24.918 2.72593C24.8361 2.72593 24.8361 2.72593 24.8361 2.81111Z" fill="#F88E0F"/>
<path d="M45.4918 16.8667C44.7541 15.2481 43.8525 13.8 42.623 12.6074C41.3935 11.4148 40.082 10.3926 38.4426 9.71111C36.8853 9.02963 35.1639 8.68889 33.4426 8.68889C31.6394 8.77407 29.918 9.2 28.2787 9.88148C26.6394 10.563 25.3279 11.5852 24.0984 12.7778C22.9508 13.9704 22.0492 15.4185 21.3935 17.037C20.7377 18.6556 20.4099 20.4444 20.4099 22.2333C20.4099 24.1926 20.7377 25.9815 21.3935 27.6C22.0492 29.2185 23.0328 30.6667 24.1803 31.8593C25.3279 33.0519 26.7213 33.9889 28.3607 34.6704C29.918 35.3519 31.6394 35.6926 33.4426 35.6926C35.2459 35.6926 36.9672 35.3519 38.5246 34.6704C40.082 33.9889 41.4754 32.9667 42.623 31.7741C43.7705 30.5815 44.7541 29.1333 45.4098 27.5148C46.0656 25.8963 46.3935 24.1074 46.3935 22.3185C46.5574 20.2741 46.1476 18.4852 45.4918 16.8667ZM39.0164 24.6185C38.6885 25.3852 38.2787 26.0667 37.7049 26.663C37.1312 27.2593 36.5574 27.6852 35.8197 28.0259C35.082 28.3667 34.3443 28.537 33.4426 28.537C32.541 28.537 31.8033 28.3667 31.1476 28.0259C30.4099 27.6852 29.7541 27.2593 29.2623 26.663C28.6885 26.0667 28.2787 25.3852 27.9508 24.6185C27.623 23.8519 27.459 23 27.459 22.1481C27.459 21.2963 27.623 20.4444 27.9508 19.6778C28.2787 18.9111 28.6885 18.2296 29.2623 17.7185C29.8361 17.1222 30.4918 16.6963 31.1476 16.4407C31.8853 16.1 32.623 15.9296 33.4426 15.9296C35.1639 16.0148 36.5574 16.6111 37.7049 17.8037C38.8525 18.9963 39.4262 20.4444 39.5082 22.1481C39.5082 23 39.3443 23.8519 39.0164 24.6185ZM40.3279 14.2259L40.2459 14.3111C40.1639 14.3111 40.082 14.2259 39.918 14.1407C38.0328 12.6074 35.8197 11.6704 33.1967 11.4148C32.9508 11.4148 32.7869 11.2444 32.7869 11.1593C32.7869 10.9889 32.9508 10.9037 33.1967 10.9037C33.6066 10.8185 34.0164 10.8185 34.4262 10.8185C35.3279 10.8185 36.2295 10.9889 37.1312 11.3296C38.6066 11.8407 39.6721 12.6926 40.3279 13.8852C40.4098 14.0556 40.4918 14.1407 40.4918 14.2259C40.4099 14.1407 40.4098 14.1407 40.3279 14.2259Z" fill="#F88E0F"/>
<path d="M74.3443 9.54075C73.6066 8.85926 72.7869 8.51852 71.8853 8.51852C70.9017 8.51852 70.082 8.85926 69.3443 9.54075C68.6886 10.2222 68.3607 11.0741 68.3607 12.0963V22.3185C68.3607 23.1704 68.1968 23.937 67.8689 24.7037C67.541 25.3852 67.0492 26.0667 66.5574 26.5778C65.9836 27.0889 65.3279 27.5148 64.5902 27.7704C63.8525 28.1111 63.1148 28.1963 62.3771 28.1963C61.4754 28.1963 60.7377 28.0259 60 27.6852C59.2623 27.3445 58.6066 26.9185 58.1148 26.3222C57.541 25.7259 57.1312 25.1296 56.8853 24.363C56.5574 23.5963 56.3935 22.8296 56.3935 21.9778V12.0111C56.3935 10.9889 55.9836 10.2222 55.2459 9.54075C54.5082 8.94445 53.6886 8.60371 52.7869 8.60371C51.8033 8.60371 50.9836 8.94445 50.2459 9.62593C49.5902 10.3074 49.2623 11.1593 49.2623 12.1815V21.7222C49.2623 23.7667 49.5902 25.5556 50.3279 27.2593C51.0656 28.963 51.9672 30.4111 53.1968 31.6037C54.4263 32.8815 55.8197 33.8185 57.3771 34.5C58.9345 35.1815 60.6558 35.5222 62.3771 35.5222C63.4427 35.5222 64.5082 35.437 65.5738 35.1815C66.6394 34.9259 67.623 34.5852 68.4427 34.0741V42.1667C68.4427 43.2741 68.7705 44.1259 69.5082 44.8074C70.2459 45.4889 71.0656 45.8296 71.9673 45.8296C72.8689 45.8296 73.6886 45.4889 74.4263 44.8074C75.164 44.1259 75.4918 43.2741 75.4918 42.337V12.0111C75.4099 11.0741 75.082 10.2222 74.3443 9.54075ZM54.7541 11.3296C54.7541 11.4148 54.6722 11.5 54.5902 11.6704C54.5082 11.7556 54.4263 11.8407 54.3443 11.8407C54.3443 11.8407 54.2623 11.8407 54.2623 11.7556C53.9345 10.9889 53.3607 10.6482 52.705 10.6482C52.4591 10.6482 52.2132 10.6482 51.9672 10.7333H51.8853C51.7213 10.7333 51.6394 10.7333 51.6394 10.6482C51.6394 10.563 51.6394 10.4778 51.7213 10.3926C51.8853 10.2222 52.0492 10.0519 52.2132 9.96667C52.3771 9.88149 52.623 9.88149 52.7869 9.88149C53.0328 9.88149 53.2787 9.88149 53.5246 10.0519C54.0984 10.2222 54.4263 10.6482 54.7541 11.1593C54.7541 11.2445 54.7541 11.2445 54.7541 11.3296ZM73.7705 11.3296C73.7705 11.4148 73.6886 11.5 73.6066 11.6704C73.5246 11.7556 73.4427 11.8407 73.3607 11.8407C73.3607 11.8407 73.2787 11.8407 73.2787 11.7556C72.9509 10.9889 72.3771 10.6482 71.7213 10.6482C71.4754 10.6482 71.2295 10.6482 70.9836 10.7333H70.9017C70.7377 10.7333 70.6558 10.7333 70.6558 10.6482C70.6558 10.563 70.6558 10.4778 70.7377 10.3926C70.9017 10.2222 71.0656 10.0519 71.2295 9.96667C71.3935 9.88149 71.6394 9.88149 71.8033 9.88149C72.0492 9.88149 72.2951 9.88149 72.541 10.0519C73.0328 10.2222 73.4427 10.6482 73.7705 11.1593C73.7705 11.2445 73.7705 11.2445 73.7705 11.3296Z" fill="#F88E0F"/>
<path d="M138.934 16.9518C138.197 15.3333 137.295 13.8852 136.066 12.6926C134.836 11.5 133.525 10.4778 131.885 9.79629C130.328 9.11481 128.607 8.77407 126.885 8.77407C125.082 8.77407 123.443 9.11481 121.803 9.88148C120.246 10.563 118.852 11.5852 117.623 12.863C116.393 14.0556 115.492 15.5037 114.754 17.1222C114.016 18.7407 113.689 20.5296 113.689 22.3185V42.763C113.689 43.7 114.098 44.5518 114.754 45.1481C115.492 45.8296 116.229 46.1704 117.131 46.1704C118.115 46.1704 118.934 45.8296 119.672 45.1481C120.328 44.4667 120.656 43.6148 120.656 42.5926V34.5C122.459 35.437 124.508 35.863 126.721 35.863C128.525 35.863 130.246 35.5222 131.885 34.8407C133.443 34.1593 134.836 33.137 136.066 31.9444C137.213 30.7518 138.115 29.3037 138.852 27.6852C139.508 26.0667 139.836 24.2778 139.836 22.4037C140 20.2741 139.672 18.5704 138.934 16.9518ZM132.459 24.6185C132.131 25.3852 131.721 26.0667 131.229 26.663C130.656 27.2593 130.082 27.6852 129.344 28.0259C128.607 28.3667 127.869 28.537 126.967 28.537C126.148 28.537 125.41 28.3667 124.672 28.0259C123.934 27.6852 123.279 27.2593 122.705 26.7481C122.131 26.237 121.721 25.5556 121.393 24.7889C121.066 24.0222 120.902 23.1704 120.902 22.2333C120.902 21.3815 121.066 20.6148 121.393 19.8481C121.721 19.0815 122.131 18.4852 122.623 17.8889C123.197 17.3778 123.77 16.8667 124.508 16.5259C125.246 16.1852 126.066 16.0148 126.885 16.0148C127.705 16.0148 128.525 16.1852 129.18 16.5259C129.836 16.8667 130.492 17.2926 131.066 17.8037C131.639 18.4 132.049 18.9963 132.377 19.763C132.705 20.5296 132.869 21.2963 132.869 22.2333C132.869 23.1704 132.787 23.8518 132.459 24.6185ZM134.18 15.5037L134.098 15.5889C134.016 15.5889 133.934 15.5037 133.77 15.4185C131.885 13.8852 129.672 12.9481 127.049 12.6926C126.803 12.6926 126.639 12.5222 126.639 12.437C126.639 12.2667 126.803 12.1815 127.049 12.1815C127.459 12.0963 127.869 12.0963 128.279 12.0963C129.18 12.0963 130 12.2667 130.984 12.6074C132.459 13.1185 133.525 13.9704 134.18 15.163C134.262 15.3333 134.344 15.4185 134.344 15.5037C134.262 15.3333 134.262 15.4185 134.18 15.5037Z" fill="#F88E0F"/>
<path d="M109.18 23.2556V25.3852C109.18 27.4296 108.77 29.3889 108.033 31.1778C107.295 32.9667 106.229 34.5852 104.918 35.863C103.607 37.2259 102.049 38.2481 100.328 39.0148C98.6065 39.7815 96.7213 40.2074 94.6721 40.2074C92.7869 40.2926 90.9016 39.9518 89.1803 39.1852C87.459 38.4185 85.9016 37.3963 84.5901 36.0333C83.2787 34.6704 82.2131 33.137 81.3934 31.3481C80.6557 29.6444 80.2459 27.8556 80.2459 25.9815C80.2459 25.8963 80.2459 25.8111 80.2459 25.7259V23.4259C80.2459 22.4037 80.5737 21.4667 81.3115 20.6148C82.0492 19.8481 82.9508 19.4222 84.0983 19.337C84.2623 19.337 84.3442 19.337 84.5082 19.337C87.8688 19.1667 89.1803 22.6593 91.3115 23.5963C93.6885 24.5333 97.377 24.363 100.246 21.3815C101.475 20.1889 102.869 19.5074 104.18 19.5074C104.508 19.4222 104.836 19.337 105.164 19.337C106.229 19.337 107.131 19.763 107.951 20.5296C108.689 21.3815 109.098 22.3185 109.18 23.2556Z" fill="#00BBAE"/>
<path d="M87.2951 8.60371C85.082 8.60371 83.2787 10.4778 83.2787 12.6926C83.2787 14.9926 85.082 16.7815 87.2951 16.7815C89.5082 16.7815 91.3115 14.9074 91.3115 12.6926C91.2295 10.3926 89.5082 8.60371 87.2951 8.60371ZM85.6557 11.8407C85.1639 11.8407 84.7541 11.4148 84.7541 10.9037C84.7541 10.3926 85.1639 10.0519 85.6557 10.0519C86.1475 10.0519 86.5574 10.4778 86.5574 10.9037C86.5574 11.3296 86.1475 11.8407 85.6557 11.8407Z" fill="#F88E0F"/>
<path d="M102.049 8.60371C99.8361 8.60371 98.0328 10.4778 98.0328 12.6926C98.0328 14.9926 99.8361 16.7815 102.049 16.7815C104.262 16.7815 106.066 14.9074 106.066 12.6926C106.066 10.3926 104.262 8.60371 102.049 8.60371ZM100.41 11.8407C99.918 11.8407 99.5082 11.4148 99.5082 10.9037C99.5082 10.3926 99.918 10.0519 100.41 10.0519C100.902 10.0519 101.311 10.4778 101.311 10.9037C101.311 11.3296 100.902 11.8407 100.41 11.8407Z" fill="#F88E0F"/>
<path d="M83.9344 27.3444C85.4918 28.3667 87.0492 29.2185 88.6065 29.8148C90.1639 30.4111 91.7213 30.6667 93.2787 30.5815C94.8361 30.4963 96.3115 29.9 97.7049 29.1333C99.1803 28.2815 100.574 27.1741 102.049 26.0667C101.393 27.8556 100.246 29.4741 98.8525 30.7519C97.377 32.0296 95.4918 32.9667 93.4426 33.137C91.3934 33.3074 89.4262 32.7111 87.7869 31.6037C86.1475 30.4963 84.7541 29.0481 83.9344 27.3444Z" fill="white"/>
</svg>
