<svg xmlns="http://www.w3.org/2000/svg" width="123" height="70" fill="none"><g clip-path="url(#clip0_1106_5076)"><path d="M6.977 64.6c-.1 1.7-1.893 2.4-3.289 2.7l-.1 2.6-2.292-.1.1-7.7c1.893-.3 5.88-.6 5.581 2.5zm-3.19-1.2v1.9c.5-.1 1.496-.3 1.596-1 .1-.8-.798-.9-1.595-.9z" fill="url(#paint0_linear_1106_5076)"></path><path d="M12.659 67.7h2.293l-.1 2.3h-4.785l-.1-7.5 2.592-.2.1 5.4z" fill="#224190"></path><path d="M22.626 62.3l1.695 7.5-2.492.2-.299-2.4-1.196.1-.3 2.2-2.491-.3 1.994-7.4 3.09.1zm-1.196 4l-.299-2.5-.498 2.5h.797z" fill="#E4C062"></path><path d="M33.59 62.9l-2.49 3.6L31 70h-2.192l-.1-3.8-2.592-3.3 1.994-.7 1.894 2.4 1.594-2.4 1.994.7z" fill="#02B0E3"></path><path d="M71.667 62.2l2.592.2-1.296 7.3H70.57l-.798-3.1-.897 3.1-2.392-.1-.897-7.2 2.591-.2.1 4.1.598-2.7 1.794-.2.698 3.1.3-4.3z" fill="#7FC142"></path><path d="M83.429 65.7c.1 2-.598 3.8-2.79 4.1-2.194.3-3.888-.9-3.789-3.6.1-2.7 2.094-4.1 3.788-3.9 1.196.3 2.592 1 2.791 3.4zm-2.293-.2c-.199-.9-.697-1.2-1.096-1.2-.598 0-1.096.6-.997 1.7 0 1.1.698 1.5 1.495 1.3.598-.2.798-1 .598-1.8z" fill="url(#paint1_linear_1106_5076)"></path><path d="M90.805 66.7L92.2 69l-1.894 1-1.196-2.6c-.1 0-.2 0-.299.1l.1 2.6-2.193-.1-.3-7.5c1.695-.4 5.782-.6 5.583 2.4-.1.8-.598 1.4-1.196 1.8zm-2.293-.9c.498 0 1.695-.3 1.794-.9.1-.6-1.096-.6-1.894-.6l.1 1.5z" fill="#21428E"></path><path d="M97.682 67.7h2.293l-.1 2.2h-4.684l-.1-7.3 2.492-.2.1 5.3z" fill="#11ACE3"></path><path d="M109.046 66.5c-.499 4.2-6.081 3.4-6.081 3.4l-.099-7.6c2.791-.3 6.678.4 6.18 4.2zm-3.888-2.2v3.2s1.994-.3 2.093-1.5c-.099-1.2-1.196-1.8-2.093-1.7zM38.076 62l5.383.1v2.4l-1.695-.1.1 5.5-2.293.1.1-5.7-1.694-.1.1-2.2z" fill="#7FC142"></path><path d="M49.738 62.1h2.492v7.6h-2.392v-3h-1.196v3l-2.492.1-.1-7.6 2.492-.1v3.3l1.296.1v-3.4h-.1z" fill="url(#paint2_linear_1106_5076)"></path><path d="M60.802 67.4l.1 2.4H55.22l-.199-7.8 5.582-.2-.1 2.5h-3.29l.1.9h1.994v1.4h-1.994l.1.9 3.39-.1z" fill="#02B0E3"></path><path d="M9.07 0L0 30.8l1.395 27.3 38.475-4.2 3.19-40.1L9.07 0z" fill="#F58921"></path><path d="M54.124 15.7l34.687-5.2 4.087 42.7-41.266-2.1 2.492-35.4z" fill="#EA3292"></path><path d="M34.388 17.5l21.33-6.5 10.168 41.2-27.71 1.9-3.788-36.6z" fill="#00B3E4"></path><path d="M25.019 29.7l16.247 16.9-11.263 7.2-10.068-13.9-.199 13.3L7.077 53 6.38 12l13.955.6-.1 8.6L31.697 11l6.778 7.7-13.456 11zm27.311-9.2l.498 30-10.366.1.399-30.2 9.469.1z" fill="#fff"></path><path d="M89.708 6.7L123 24.5l-12.858 37-32.196-15.9L89.708 6.7z" fill="#7FC142"></path><path d="M85.522 34.9c-1.894 17.8-26.016 14.7-26.016 14.7L58.908 17c12.16-1.4 28.408 1.6 26.614 17.9zm-17.045-9.3v13.5s8.572-1.3 8.772-6.6c.199-5-4.685-7.4-8.772-6.9zM110.74 46l-2.691 8.5-23.424-7.9 2.79-7.4 17.345-8.9-12.56-4.6 2.891-8.8 22.228 6.9-2.393 9.5-15.748 9.4L110.74 46z" fill="#fff"></path></g><defs><linearGradient id="paint0_linear_1106_5076" x1="1.371" y1="65.929" x2="7.038" y2="65.929" gradientUnits="userSpaceOnUse"><stop stop-color="#DB2A64"></stop><stop offset="1" stop-color="#ED4D7A"></stop></linearGradient><linearGradient id="paint1_linear_1106_5076" x1="76.799" y1="66.088" x2="83.436" y2="66.088" gradientUnits="userSpaceOnUse"><stop stop-color="#DB2A64"></stop><stop offset="1" stop-color="#ED4D7A"></stop></linearGradient><linearGradient id="paint2_linear_1106_5076" x1="45.925" y1="65.924" x2="52.181" y2="65.924" gradientUnits="userSpaceOnUse"><stop stop-color="#DB2A64"></stop><stop offset="1" stop-color="#ED4D7A"></stop></linearGradient><clipPath id="clip0_1106_5076"><path fill="#fff" d="M0 0h123v70H0z"></path></clipPath></defs></svg>