<svg xmlns="http://www.w3.org/2000/svg" width="145" height="70" fill="none"><g clip-path="url(#clip0_1106_5000)"><path d="M23.6 57.3c-23.8 5.6-33.8-17.4-10-30.4 23.8-13 66.7-22.8 102.9-10.7 42.1 14.1 23.8 60.4-16.6 46.5-23.5-8-25.4-17.4-76.3-5.4z" fill="url(#paint0_linear_1106_5000)"></path><path opacity=".25" d="M115.6 49.9c17.3-2.1 20.5-25.7 4.4-32.3-1.1-.5-2.3-.9-3.5-1.3C80.3 4.1 37.4 13.9 13.7 26.9c-4.1 2.2-7.2 4.8-9.4 7.4-6.1 7.3.9 18.2 10.1 15.6 4.3-1.2 8.6-3 12.5-5.1 15.3-7.9 37.4-8.7 63.3 1.6 8.7 3.4 17.7 4.4 25.4 3.5z" fill="url(#paint1_linear_1106_5000)"></path><path opacity=".18" d="M32.1 53.9c-1 .3-2.1 1.5-2.1 1.5s-.6-.8-.8-1.3c-.2-.5-.9-.9-1.7-.8l.4 2.6.6.2c2-.4 4-.9 5.8-1.2-.7-1.3-1.3-1.3-2.2-1zM10.8 33.5c3.7 1.7 2.4 5.5-2.2 4.7-4.5-.8-2.7-6.9 2.2-4.7zm2.8 6.2c.6.8-.3 1.6-1.2.9-1-.7.4-2 1.2-.9zm55.1-22.5c-4-.7-4-4.1.6-4.7 5.9-.8 5.8 5.9-.6 4.7zm-7-5.2c-8 1.1-15.8 2.7-23 4.8l-16.1 8c16.9 1.3 36.9-.3 39.1-12.8z" fill="#041A35"></path><path d="M23.9 24.9c-11.1.4-17.6-9.7-1.6-17.9 26-13.2 37.1-5 37.2 2.1.1 9.3-8.7 14.7-35.6 15.8z" fill="url(#paint2_linear_1106_5000)"></path><path opacity=".2" d="M22.3 7c-7.3 3.7-10 7.9-9.6 11.3 2.3 3.3 12.4 4.4 22.9 1.8C52.4 15.9 57.3 5.3 51.6.7 45.7-1 36.1 0 22.3 7z" fill="url(#paint3_linear_1106_5000)"></path><path d="M52.4 59c-2.5-.7-5-4.4 10.2-3.9 15.2.5 25.1 13.3 13.6 14.8-8.4 1.1-6.3-6.3-23.8-10.9z" fill="url(#paint4_linear_1106_5000)"></path><path d="M65.3 14.5c-4.9-.9-4.9-4.9.8-5.7 7.2-1.1 7.1 7.1-.8 5.7z" fill="url(#paint5_linear_1106_5000)"></path><path d="M8.4 31.2c4.6 2.1 3 6.9-2.7 5.9-5.8-1-3.5-8.7 2.7-5.9z" fill="url(#paint6_linear_1106_5000)"></path><path d="M12.7 39.3c.6.8-.3 1.6-1.2.9-.9-.7.4-2 1.2-.9z" fill="#FFDF43"></path><path d="M15.5 6.9C19.2 4 16.8 0 11.8 3.6c-5 3.7-1.4 7.4 3.7 3.3zm46.8-.5c-1.7 0-2.5-1.6-.7-2.6 5.2-2.9 6 2.6.7 2.6z" fill="#FFAF43"></path><path d="M128.6 68.2c-11.4 1.8-13.2-6.7-4.8-10 14.9-6 19.4 7.7 4.8 10z" fill="url(#paint7_linear_1106_5000)"></path><path d="M140.3 59.3c-1.6-.5-1.6-2.4.5-2.7 4.7-.7 5.1 4.4-.5 2.7z" fill="#FFAF43"></path><path d="M77.4 6.7c-.3 0-.6-.1-.9-.4-.5-.4-.5-1.3 0-1.8l1.2-1.3c.4-.5 1.1-.5 1.6-.2l.8.5.5-.7c.4-.7 1.2-.8 1.8-.4.6.4.8 1.2.4 1.8l-1.2 1.7c-.4.6-1.2.8-1.8.4l-1-.6-.5.5c-.2.4-.5.5-.9.5z" fill="url(#paint8_linear_1106_5000)"></path><path d="M91.2 66.6h-.3l-3-.7c-.3-.1-.6-.3-.8-.6-.2-.3-.2-.7-.1-1l.3-1.3-1.1-.3c-.7-.2-1.1-.9-.9-1.6.2-.7.9-1.1 1.6-.9l2.3.7c.7.2 1.1.9.9 1.6l-.3 1.3 1.7.4c.7.2 1.1.9 1 1.6-.2.4-.7.8-1.3.8z" fill="url(#paint9_linear_1106_5000)"></path><path d="M34 59.6c-.5 0-.9-.3-1.2-.7l-1.1-2.1-2.7 1.1c-.6.2-1.3 0-1.6-.5l-1.2-2c-.4-.6-.2-1.4.4-1.8.6-.4 1.4-.2 1.8.4l.6 1 2.7-1.1c.6-.3 1.3 0 1.6.6l1.7 3.2c.3.6.1 1.4-.5 1.8 0 .1-.3.1-.5.1z" fill="url(#paint10_linear_1106_5000)"></path><path d="M109.1 15.5c3.6.7 4.7-3.5 1.3-3.9-3.3-.5-5.5 3.1-1.3 3.9z" fill="url(#paint11_linear_1106_5000)"></path><path d="M116.2 12.7c-2.2-.4-2.4 1.5-.1 1.9 2.4.4 2-1.5.1-1.9z" fill="#FFAF43"></path><path opacity=".25" d="M24.6 17.5l.8-.2-.2-1.4-2.5 1.1-.5 4.2s.2 1.7 1.9 1.4c1.7-.3 1.4-1.9 1.2-2.7-.3-.7-.7-2.4-.7-2.4zm5.5.5c-.6-.5-2-2.1-2.7-2.9.3-1 .9-3 1-3.4.2-.6 0-1.3-.9-1.7-1 1.8-1.2 5.5-1.2 5.5h.2l1.5 4.8c.9 1 2.3.8 2.9.1.6-.8 0-1.8-.8-2.4zm-6-2.7s-.6-2.8-.8-3.5c-.2-.7-.7-1-1.9-.8l1.5 4.5c-.1.1 1.2-.2 1.2-.2zM30 10c.2.6.3 1.4 1.4 1.1 1.2-.3 1.3-.9 1.2-1.5-1.5.1-2.6.4-2.6.4zm2.2 9c.3.8.5 1.5 1.8 1.2 1.3-.3 1.4-.7 1.4-1.2s-1.1-5.1-1.3-6c-.2-.9-.6-1.4-1.6-1.4.6 2.1-.3 7.4-.3 7.4zm4.1-2c.7 1.2 1.9 2 3.4 1.8 1.5-.2 2.3-.8 2.6-2.2-.8-1.2-1.3-.2-1.3-.2s.8 1.8 2.4 1.6c1.6-.1 1.9-1.1 1.5-2.3-.4-1.2-1.6-6.3-1.9-7.5-.3-1.1-.7-2.1-2-1.9.9 1.9.8 8.8.8 8.8l-1.5 1.3-4 .6z" fill="#CE5800"></path><path opacity=".25" d="M38.5 15.5c-.7-1.2-.3-2.4.7-2.8 1-.5 2.1.4 2.1.4l-.8-1.4s-1.5-.6-2.1-.2c-.5.4-1.3.3-1.3 1.3s.6 2.2.6 2.2l.8.5zm7.6.3c.2.4 1 1.2 2.9 1 1.9-.2 3-1.5 3.2-2.5.3-.9-.3-2.3-1.9-3 .7 1.8-1.2 5.4-4.2 4.5zm2.2-4.7c-.7-.3-.5-.8.6-.7 1.1.1 2.4-.6 1.1-2.3-2.1.4-3.9 1.2-3.9 1.2s-.6 1.6-.2 1.8c.3.3 2 .6 2 .6l.4-.6z" fill="#CE5800"></path><path d="M21.2 11.1c.7-.2 1.5.3 1.6 1l.7 2.9 1.1-.3 1.1-4c.1-.5.5-.8.9-.9.9-.2 1.8.7 1.5 1.6L27 15.2l2.9 3.2c.7.8.3 2-.7 2.2-.5.1-1 0-1.3-.4l-2.8-3.3-1.1.3.7 3.1c.2.7-.3 1.4-1 1.6h-.1c-.7.2-1.4-.3-1.6-1l-2-8.3c0-.6.4-1.4 1.2-1.5zm10.3.7l.6-.1c.6-.1 1.1.2 1.3.8l1.4 5.8c.1.6-.2 1.1-.8 1.3l-.6.1c-.6.1-1.1-.2-1.3-.8l-1.4-5.8c-.1-.6.2-1.2.8-1.3zm-.7-3l.5-.1c.6-.1 1.1.2 1.3.8.1.6-.2 1.1-.8 1.3l-.5.1c-.6.1-1.1-.2-1.3-.8-.1-.6.3-1.2.8-1.3zm7.2 1.3c.7-.2 1.6-.3 2.2.1 0 0-.1-.1-.1-.3L39.7 8c-.2-.7.3-1.5 1-1.6.7-.2 1.5.3 1.6 1l2.1 8.6c.2.7-.3 1.4-.9 1.5-.7.2-1.4-.2-1.5-.9-.3.9-1.1 1.5-2 1.7-2.1.5-3.9-.8-4.5-3.3-.7-2.5.4-4.4 2.5-4.9zm2.1 5.8c.8-.2 1.4-.9 1.1-2.3-.2-.9-.9-1.8-2-1.5-.8.2-1.4 1-1.1 2.2.2 1.3 1 1.9 2 1.6zm5.8-1.2c.2-.5.7-.8 1.3-.7.5.1 1 .1 1.4 0 .5-.1.7-.3.6-.6-.2-.8-3.8.2-4.4-2.4-.4-1.6.9-2.8 2.7-3.3.6-.1 1.3-.2 1.9-.1.6.1 1 .7.9 1.3-.1.5-.6.9-1.2.8-.4 0-.8 0-1.2.1-.6.1-.7.3-.6.6.2.8 3.8-.3 4.4 2.3.3 1.5-.6 2.9-2.6 3.3-.8.2-1.6.2-2.4 0-.6 0-1-.7-.8-1.3z" fill="#FF4817"></path><path opacity=".3" d="M27 15.2l1.1-3.8c.3-.9-.6-1.8-1.5-1.6-.5.1-.8.5-.9.9l-1.1 4-1.1.3-.7-2.9c-.2-.7-.9-1.2-1.6-1-.7.2-1.2.9-1 1.6l1.6 6.7c1-.2 1.9-.5 2.6-.9l-.4-1.3 1.1-.3.6.7c.7-.6 1.3-1.3 1.7-2l-.4-.4z" fill="url(#paint12_linear_1106_5000)"></path><path opacity=".3" d="M33.8 14.3l-.4-1.8c-.1-.6-.7-.9-1.3-.8l-.6.1c-.6.1-.9.7-.8 1.3l.8 3.4c1.2-.6 1.9-1.4 2.3-2.2z" fill="url(#paint13_linear_1106_5000)"></path><path opacity=".3" d="M31.3 10.8l.5-.1c.6-.1.9-.7.8-1.3-.1-.6-.7-.9-1.3-.8l-.5.1c-.5.2-.9.8-.8 1.3.2.6.7.9 1.3.8z" fill="url(#paint14_linear_1106_5000)"></path><path opacity=".3" d="M43.4 11.8l-1.1-4.4c-.2-.7-.9-1.2-1.6-1-.7.2-1.2.9-1 1.6l.4 1.8c0 .2.1.3.1.3-.6-.4-1.5-.3-2.2-.1-2.1.5-3.2 2.5-2.6 4.9.1.4.2.8.4 1.1.6 0 1.8-.1 3-.4-.3-.3-.6-.7-.8-1.3-.3-1.2.3-2 1.1-2.2 1-.2 1.8.6 2 1.5.1.4.1.8.1 1.1 1.1-.6 2-1.5 2.2-2.9z" fill="url(#paint15_linear_1106_5000)"></path><path opacity=".3" d="M48.6 13.1c.8-.3 1.7-.7 2.3-1.6-1.3-.9-3.4-.4-3.6-1-.1-.2.1-.4.6-.6.4-.1.8-.1 1.2-.1.5.1 1-.3 1.2-.8.1-.6-.3-1.2-.9-1.3-.6-.1-1.3 0-1.9.1-1.8.4-3.1 1.6-2.7 3.3.4 1.9 2.6 1.8 3.8 2z" fill="url(#paint16_linear_1106_5000)"></path><path opacity=".3" d="M4.5 30.9c-2 .6-2.1 4.8 2.4 4.1 4.6-.7 1.5-5.2-2.4-4.1z" fill="url(#paint17_linear_1106_5000)"></path><path opacity=".3" d="M124.3 58.3c-5.9 2-2.3 7.3 3.4 5.7 5.8-1.7 7.7-9.5-3.4-5.7z" fill="url(#paint18_linear_1106_5000)"></path><path opacity=".3" d="M65.5 9c-2.9.7-3.7 3.4.3 2.8 4-.7 3.5-3.8-.3-2.8z" fill="url(#paint19_linear_1106_5000)"></path><path opacity=".3" d="M31.9 53.9L29.2 55l-.6-1c-.4-.6-1.2-.8-1.8-.4-.6.4-.8 1.2-.4 1.8l1.2 2c.3.6 1 .8 1.6.5l2.7-1.1c.8-1 1.1-2.1 1.2-2.8-.5-.2-.9-.2-1.2-.1z" fill="url(#paint20_linear_1106_5000)"></path><path opacity=".3" d="M90.2 62.1c0-.6-.3-1.2-1-1.3l-2.3-.7c-.7-.2-1.4.2-1.6.9-.2.7.2 1.4.9 1.6l1.1.3L87 64c1.9-.1 2.8-1 3.2-1.9z" fill="url(#paint21_linear_1106_5000)"></path><path opacity=".3" d="M76.1 5.3c1.2.2 4.6.5 6.8-2.4-.1-.2-.3-.4-.5-.6-.6-.3-1.4-.2-1.8.5l-.5.7-.8-.5c-.5-.3-1.2-.2-1.6.2l-1.2 1.3c-.3.3-.4.5-.4.8z" fill="url(#paint22_linear_1106_5000)"></path><path d="M78.4 65.9c-2.2.7-4.8-1.6-7.4-4.4-2.6-2.8-6.6-4.5-4.4-5.2 3.5-1 17.4 7.7 11.8 9.6z" fill="url(#paint23_linear_1106_5000)"></path><path opacity=".18" d="M19.6 48.7c.8 2.3 2.7 4 5.1 3.1 2.5-.8 2.8-2.5 2.5-4.1-.4-1.7-.9-3.5-.9-3.5s6.1-1.5 8.9-3.7c2.7-2.1 3.5-5.2 1.8-10-1.6 3.2-5.8 8.3-5.8 8.3l-4.4 2.6-3.6.8-1.4 2.1v4.8l-2.2-.4zm5.6-8.9l-1.1-4.7s2.7-1.6 4.1-1.9c1.3-.3 1.7 0 1.7 0l.2-1.2H27l-5.3 2.3-.8 1.3 2.3 6.1 2-1.9zm14.7 2.6s-.5 3.5 4.2 4.4c4.7.9 9.4-4.1 9.4-4.1l-.6-1.7-1.8.8s.2 3.8 2 3.9c1.7.1 3.7-.1 4.8-.4 1.1-.3 1.4-.9 1.3-2.5-.1-1.6-.3-11-.5-12.7-.2-1.7-2.5-3.6-5.4-3.9 2.2 5 1.5 9.8 1.5 9.8l-4.9 5.6-6.1 1.6-3.9-.8z" fill="#041A35"></path><path opacity=".18" d="M46.3 40.8s1.8-3.6 5.7-3.2c.3-2.1-.3-2.2-.3-2.2s-4.1.8-5 1.9c-.9 1.1-1.4 1.5-1.4 2 0 .4 1 1.5 1 1.5zm-4.9-7.6c1.3 1.2 2.2 1.6 3.3.9 1.1-.7 4.8-2.9 7.2-1.8-.2-2.3-3.1-2.6-3.1-2.6l-4.3.5-3.1 3zM62.6 41c0 1.5.2 4.1 3 4.3 2.7.1 4.2-.5 4.8-2 .6-1.5.7-5.9.8-8.7.1-2.8 3.3-4 5.3-4.7 2-.7 3.8-6.4.5-7.5-1.6 4.5-6.3 5.4-6.3 5.4s1.1-4.5-2.8-4.6C66.6 26 62.6 41 62.6 41zM80 25s-.8 2.4.4 3.2c1.1.9 3.5.7 3.5.7l-2.2 10s0 5.8 4.6 7.6c3.9 1.6 7 1 7.3-1.2.2-1.9 1.1-5.6-2.2-6.3-3.1 2-3.7 2.7-3.7 2.7l-1.9-16.6L80 25zm43.9-.2c-4 .9-5.4 2.4-5.4 2.4L102.1 55h-8.2c.3 1.7.8 4.3 5.9 4.5 5.1.2 6.8-3.2 9.8-8 1.5-2.4 5.1-8.3 8.4-13.4.3.2.7.4 1.2.5 3.8.9 4-3.6 1.1-3.8h-.2c2.2-3.5 3.8-6 3.8-6s.8-2 0-4z" fill="#041A35"></path><path opacity=".18" d="M105.3 22c3.9 1.4 4 3.3 4.3 4.6.2 1.3.7 11 .7 11l-2.1 1-2.9-16.6zm-15.8 7s2.6 0 4 .1 2.4-1.1 2.7-2.3c.3-1.2 1-4.3-1.9-5.2-3.8 2.3-4.8 6.2-4.8 6.2V29z" fill="#041A35"></path><path d="M16.7 37.7c-.6-2.2.4-4.4 2.4-5.5 2.6-1.4 5.2-2.7 7.9-4 3.8-1.8 9.6-2 10.3 3.7.6 5.3-3.7 9.1-7.7 10.4-1.8.6-2.7.9-4.4 1.5.3 1.2.5 2.2.7 3.1.3 1.6-.6 3.2-2.2 3.7h-.1c-1.7.6-3.6-.5-4.1-2.2-1-3.6-1.9-7.1-2.8-10.7zm10.7.8c2.3-.9 3.2-2.5 2.9-4.1-.3-1.7-1.6-2.3-3.8-1.4-1.4.6-2 .9-3.4 1.5.4 2.1.7 3.1 1.1 5.2 1.3-.4 1.9-.7 3.2-1.2zm23.2-5.1c.2 0 .4-.1.6-.1V33c-.1-1.5-1.5-1.7-3.1-1.4-1.4.3-2.9 1.1-4.1 2-.8.6-2 .4-2.6-.4-.1-.1-.2-.2-.3-.4-.7-.8-.6-2.1.3-2.8 2.2-1.6 4.6-2.7 7.1-3.5 4.1-1.3 9.8-.3 9.8 5.6 0 3.4.1 6.8.1 10.2 0 1-.8 1.9-1.8 2-.7.1-1.4.1-2.1.2-1.1.1-2.1-.8-2.1-2v-.1h-.1c-1.2 1.9-3.5 3-5.6 3.4-2.7.4-6.3-.8-6.8-4-.9-5.1 7.2-7.7 10.7-8.4zm-2.4 7.7c1.9-.3 3.3-2.3 3.2-3.8 0-.3-.3-.5-.5-.4h-.1c-2.1.4-4.7 1.4-4.6 3 0 .8.7 1.4 2 1.2zM65 23.4l2.1-.3c1.6-.2 3 1 2.9 2.6v.5c0 .7-.2 1.3-.2 1.3h.1c1.2-3.2 3.2-4.8 5-5.5 1.7-.7 3.5.6 3.3 2.4l-.1.9c-.2 1.8-1.4 3.4-3.1 4-2.2.7-4.9 2.4-5.2 6.3l-.3 5.1c0 1.9-1.5 3.3-3.2 3.3H66c-1.9 0-3.4-1.5-3.3-3.4.1-4.9.2-9.8.2-14.7 0-1.2.9-2.3 2.1-2.5zm17.6 4.5h-.4c-1.3 0-2.4-1.1-2.3-2.5l.2-1.6c.1-1.1 1-1.9 2.1-2 .4 0 .8 0 1.4-.1.2-1.9.4-3.1.5-4.6.1-1.2 1.1-2.2 2.4-2.3.9-.1 1.8-.1 2.7-.2 1.7-.1 3 1.4 2.8 3-.2 1.2-.3 2.3-.6 3.8h2.2c1.6 0 2.7 1.4 2.5 2.9l-.3 1.5c-.2 1.2-1.3 2.1-2.6 2.1-.8 0-1.6-.1-2.8-.1-.5 3-.7 4.5-1.1 7.5-.3 2.6.7 3.5 1.9 3.7 1.4.3 2.3 1.8 2 3.2l-.3 1.8c-.2 1.3-1.3 2.3-2.7 2.3-3.4.1-9.2-1-8.5-10.3.2-2.7.6-5.4.9-8.1zm39-4.9c-3-.4-6 1.1-7.4 3.8-1.4 2.6-4.8 9.5-5.2 10.3-.3-3.5-.6-7.7-.9-11-.2-2.7-2.4-4.8-5.1-4.9h-.1c-2.4-.1-4.2 2-3.7 4.3 1.4 6.8 2.6 13.7 3.5 20.6.1.8-.1 1.7-.5 2.4-1 1.7-2.5 1.8-3.7 1.5-1.5-.4-3.2.3-4 1.7-.1.1-.1.2-.2.3-1.1 1.8-.4 4.1 1.5 5.1.4.2.9.4 1.3.5 4.2 1.1 8.2-1.5 10.5-5.5 5.1-8.3 10.4-16.7 16-25 1.1-1.5.1-3.8-2-4.1z" fill="url(#paint24_linear_1106_5000)"></path><path d="M21.8 32.9c-1.3.6-1.4-.8 0-1.6s4.3-2.2 5.1-2.5c.8-.3 1.7.3-.3 1.2-1.9.8-3.2 2.2-4.8 2.9zm20.6-1.7c-1 .6-1.3-.3-.3-1.1.9-.8 3.1-1.9 3.3-1.8.3 0 .7.4-.6 1-1.3.6-1.6 1.4-2.4 1.9zm22.2-6c-.6.1-1.2-.8 0-1.3s2.4-.3 2.5-.1c.1.2-.5.3-1.2.6-.8.2-.8.7-1.3.8zM85.7 17c-.8.2-1.2-.8-.2-1.3s3.3-.4 3.6-.3c.4.1.5.7-1.1.7-1.5 0-1.2.6-2.3.9zm15.7 13.5c-.9.3-1-1.8-1.3-2.9-.3-1.1-.7-3.2 0-3.7s1.4-.2 1.5 2.2c.1 2.5.6 4.1-.2 4.4z" fill="#fff"></path><path d="M118.1 37.6c4.6 1.1 4.8-4.3 1.3-4.6-3.4-.2-5.2 3.7-1.3 4.6z" fill="url(#paint25_linear_1106_5000)"></path><path d="M118.2 33.4c-2.1.4-2.7 2.7.2 2.4 2.9-.3 3.3-3-.2-2.4z" fill="url(#paint26_linear_1106_5000)"></path><path d="M26.7 54.8c-.6.3-.7-.5.1-1 .8-.6.7.5-.1 1zm5.2-50.3c-1.2.4-1.7-.5-.4-1.1 1.3-.6 3.1-1.2 3.4-1 .4.2 0 1-3 2.1zm4.2-2c-.7.1-1-.3 0-.6s.8.4 0 .6z" fill="#fff"></path></g><defs><linearGradient id="paint0_linear_1106_5000" x1="105.7" y1="82.557" x2="37.925" y2="4.591" gradientUnits="userSpaceOnUse"><stop offset="0" stop-color="#5957FF"></stop><stop offset="1" stop-color="#27ADFF"></stop></linearGradient><linearGradient id="paint1_linear_1106_5000" x1="100.841" y1="69.902" x2="34.67" y2="3.731" gradientUnits="userSpaceOnUse"><stop stop-color="#fff"></stop><stop offset="1" stop-color="#fff"></stop></linearGradient><linearGradient id="paint2_linear_1106_5000" x1="48.189" y1="25.148" x2="25.178" y2="2.136" gradientUnits="userSpaceOnUse"><stop stop-color="#FFAF43"></stop><stop offset="1" stop-color="#FFDF43"></stop></linearGradient><linearGradient id="paint3_linear_1106_5000" x1="42.845" y1="20.131" x2="25.015" y2="2.3" gradientUnits="userSpaceOnUse"><stop stop-color="#fff"></stop><stop offset="1" stop-color="#fff"></stop></linearGradient><linearGradient id="paint4_linear_1106_5000" x1="62.968" y1="52.394" x2="69.442" y2="72.316" gradientUnits="userSpaceOnUse"><stop offset="0" stop-color="#5957FF"></stop><stop offset="1" stop-color="#27ADFF"></stop></linearGradient><linearGradient id="paint5_linear_1106_5000" x1="63.444" y1="8.983" x2="69.931" y2="14.236" gradientUnits="userSpaceOnUse"><stop stop-color="#FFDF43"></stop><stop offset="1" stop-color="#FFAF43"></stop></linearGradient><linearGradient id="paint6_linear_1106_5000" x1="9.49" y1="36.986" x2="3.661" y2="31.157" gradientUnits="userSpaceOnUse"><stop stop-color="#FFAF43"></stop><stop offset="1" stop-color="#FFDF43"></stop></linearGradient><linearGradient id="paint7_linear_1106_5000" x1="133.183" y1="67.742" x2="123.023" y2="57.581" gradientUnits="userSpaceOnUse"><stop stop-color="#FFAF43"></stop><stop offset="1" stop-color="#FFDF43"></stop></linearGradient><linearGradient id="paint8_linear_1106_5000" x1="81.368" y1="6.255" x2="77.997" y2="2.884" gradientUnits="userSpaceOnUse"><stop stop-color="#3EBF85"></stop><stop offset="1" stop-color="#3EE555"></stop></linearGradient><linearGradient id="paint9_linear_1106_5000" x1="85.233" y1="63.365" x2="92.522" y2="63.365" gradientUnits="userSpaceOnUse"><stop stop-color="#3EE555"></stop><stop offset="1" stop-color="#3EBF85"></stop></linearGradient><linearGradient id="paint10_linear_1106_5000" x1="26.101" y1="56.493" x2="35.35" y2="56.493" gradientUnits="userSpaceOnUse"><stop stop-color="#3EE555"></stop><stop offset="1" stop-color="#3EBF85"></stop></linearGradient><linearGradient id="paint11_linear_1106_5000" x1="111.44" y1="15.264" x2="108.015" y2="11.839" gradientUnits="userSpaceOnUse"><stop stop-color="#FFAF43"></stop><stop offset="1" stop-color="#FFDF43"></stop></linearGradient><linearGradient id="paint12_linear_1106_5000" x1="26.694" y1="16.676" x2="20.973" y2="10.955" gradientUnits="userSpaceOnUse"><stop stop-color="#fff"></stop><stop offset="1" stop-color="#fff"></stop></linearGradient><linearGradient id="paint13_linear_1106_5000" x1="33.255" y1="15.143" x2="30.606" y2="12.494" gradientUnits="userSpaceOnUse"><stop stop-color="#fff"></stop><stop offset="1" stop-color="#fff"></stop></linearGradient><linearGradient id="paint14_linear_1106_5000" x1="32.17" y1="10.565" x2="30.479" y2="8.874" gradientUnits="userSpaceOnUse"><stop stop-color="#fff"></stop><stop offset="1" stop-color="#fff"></stop></linearGradient><linearGradient id="paint15_linear_1106_5000" x1="41.825" y1="14.37" x2="37.139" y2="9.684" gradientUnits="userSpaceOnUse"><stop stop-color="#fff"></stop><stop offset="1" stop-color="#fff"></stop></linearGradient><linearGradient id="paint16_linear_1106_5000" x1="50" y1="12.413" x2="45.933" y2="8.346" gradientUnits="userSpaceOnUse"><stop stop-color="#fff"></stop><stop offset="1" stop-color="#fff"></stop></linearGradient><linearGradient id="paint17_linear_1106_5000" x1="8.023" y1="34.998" x2="4.093" y2="31.068" gradientUnits="userSpaceOnUse"><stop stop-color="#fff"></stop><stop offset="1" stop-color="#fff"></stop></linearGradient><linearGradient id="paint18_linear_1106_5000" x1="129.716" y1="63.325" x2="124.019" y2="57.627" gradientUnits="userSpaceOnUse"><stop stop-color="#fff"></stop><stop offset="1" stop-color="#fff"></stop></linearGradient><linearGradient id="paint19_linear_1106_5000" x1="67.134" y1="11.755" x2="64.479" y2="9.1" gradientUnits="userSpaceOnUse"><stop stop-color="#fff"></stop><stop offset="1" stop-color="#fff"></stop></linearGradient><linearGradient id="paint20_linear_1106_5000" x1="31.552" y1="57.021" x2="27.388" y2="52.858" gradientUnits="userSpaceOnUse"><stop stop-color="#fff"></stop><stop offset="1" stop-color="#fff"></stop></linearGradient><linearGradient id="paint21_linear_1106_5000" x1="89.194" y1="63.376" x2="85.957" y2="60.139" gradientUnits="userSpaceOnUse"><stop stop-color="#fff"></stop><stop offset="1" stop-color="#fff"></stop></linearGradient><linearGradient id="paint22_linear_1106_5000" x1="80.692" y1="5.268" x2="78.152" y2="2.728" gradientUnits="userSpaceOnUse"><stop stop-color="#fff"></stop><stop offset="1" stop-color="#fff"></stop></linearGradient><linearGradient id="paint23_linear_1106_5000" x1="78.601" y1="66.064" x2="67.592" y2="55.054" gradientUnits="userSpaceOnUse"><stop stop-color="#fff"></stop><stop offset="1" stop-color="#fff"></stop></linearGradient><linearGradient id="paint24_linear_1106_5000" x1="70.283" y1="58.091" x2="70.283" y2="14.668" gradientUnits="userSpaceOnUse"><stop stop-color="#9DDAFF"></stop><stop offset="1" stop-color="#fff"></stop></linearGradient><linearGradient id="paint25_linear_1106_5000" x1="120.895" y1="37.401" x2="117.043" y2="33.55" gradientUnits="userSpaceOnUse"><stop stop-color="#FFAF43"></stop><stop offset="1" stop-color="#FFDF43"></stop></linearGradient><linearGradient id="paint26_linear_1106_5000" x1="119.651" y1="35.633" x2="117.462" y2="33.444" gradientUnits="userSpaceOnUse"><stop stop-color="#fff"></stop><stop offset="1" stop-color="#fff"></stop></linearGradient><clipPath id="clip0_1106_5000"><path fill="#fff" d="M0 0h144.4v70H0z"></path></clipPath></defs></svg>