<svg xmlns="http://www.w3.org/2000/svg" width="94" height="70" fill="none"><g clip-path="url(#clip0_1106_4892)"><path d="M27.3 32.667c-.817-1.284-1.75-2.567-2.567-3.85-.7-1.284-1.05-2.567-.933-4.084.117-1.4.584-2.8 1.167-4.083 1.283-2.566 3.383-4.666 5.25-6.883.933-1.167 1.867-2.333 2.566-3.617.7-1.167 1.167-2.567.7-3.85a3.682 3.682 0 00-2.45-2.45c-1.283-.467-2.8 0-4.083.583C24.5 5.6 22.517 7.7 21.35 10.15c-.7 1.284-1.167 2.8-1.4 4.2-.35 1.517-.466 3.034-.816 4.55-.117.7-.35 1.4-.7 2.1-.234.467-.817 1.167-1.4.7-.584-.35-.817-1.283-.934-1.866-.117-.817-.233-1.517-.233-2.334-.117-1.633.116-3.267.233-4.9.117-1.516.233-3.033-.35-4.433-.466-1.05-1.283-2.1-2.45-2.567-1.167-.467-2.333-.233-3.383.583-2.334 1.984-1.984 5.25-1.75 8.05.35 3.384.7 6.767.933 10.15.117.934.233 1.984.233 2.917l-.7 3.5c-.35 1.634-.583 3.267-.816 4.9-.117 1.4-.35 2.917.116 4.317.817 2.45 3.967 3.616 6.184 2.1 1.166-.817 1.633-1.983 1.866-3.267.117-1.517 0-3.15-.116-4.666 0-.817-.117-1.634 0-2.45.116-.584.583-1.284 1.283-1.167.7.116 1.284.817 1.517 1.4.35.583.583 1.283.7 1.983.816 2.8 1.4 5.833 3.15 8.283 1.4 1.984 4.317 4.2 6.65 2.217.933-.7 1.4-1.867 1.516-3.033.117-1.517-.466-2.917-1.166-4.2a18.322 18.322 0 00-2.217-4.55z" fill="#41ACE6"></path><path d="M38.618 15.05c1.05-.816 1.4-2.1.933-3.383-.467-1.166-1.75-1.983-3.033-1.4-.7.35-1.284 1.05-1.4 1.867-.234.7-.234 1.4.116 2.1.7 1.283 2.217 1.633 3.384.817zm1.633 18.55c-.467-1.166-1.05-2.333-1.4-3.5a18.604 18.604 0 01-.7-3.5c0-.933.233-1.866.35-2.916.467-1.983.817-4.317-.583-6.067s-3.734-.583-5.017.7c-1.517 1.517-2.217 3.5-2.683 5.483a15.547 15.547 0 00-.35 3.267c.116 1.05.233 2.217.466 3.267.35 1.983.934 3.966 2.1 5.6 1.05 1.633 2.45 3.15 4.434 3.383 1.633.233 3.616-.7 3.85-2.45.35-1.05 0-2.216-.467-3.267z" fill="#F8C013"></path><path d="M70.7 35.934c.467-1.75-.116-4.434-2.216-4.784-.584-.116-1.05 0-1.634 0-.583 0-1.05-.233-1.4-.583-.7-.817-1.166-1.983-1.4-3.033-.466-2.217-.466-4.667-.116-7a22.486 22.486 0 012.1-6.534c1.166-2.216 2.683-4.083 4.083-6.066 1.167-1.634 2.45-3.967 1.05-5.95-1.05-1.517-3.033-2.1-4.783-1.867-1.984.233-3.85 1.4-5.134 2.917-1.516 1.633-2.333 3.733-2.916 5.95-.234 1.05-.467 2.216-.7 3.383-.234 1.05-.35 2.217-1.05 3.15a.251.251 0 01-.234.233c-.116 0-.233-.116-.35-.233-.233-.117-.35-.35-.583-.467-.467-.233-.933-.466-1.4-.583-.933-.233-1.983-.233-2.917-.117-4.316.7-6.883 5.134-7.7 9.1-.466 2.334-.466 4.667-.233 7 .233 2.217.933 4.434 2.217 6.184 1.166 1.633 3.033 3.033 5.016 3.383 2.217.35 4.084-.933 5.6-2.45.234-.233.817-.933 1.167-.817.583 1.517 1.75 2.8 3.15 3.5 1.867 1.05 4.083.934 6.067.117 2.1-.933 3.85-2.333 4.316-4.433zm-17.966-5.717c-1.517.467-2.8-.583-3.267-1.983-.35-1.05-.233-2.1.233-2.917.117-.233.35-.467.7-.583.584-.35 1.284-.467 1.867-.35.817.233 1.283.933 1.633 1.75.584 1.283.467 3.5-1.166 4.083z" fill="#3FDDC7"></path><path d="M84.467 28.583c-1.283-1.75-3.383-2.45-5.017-3.733-.816-.7-1.633-1.517-2.216-2.45-.584-.933-1.167-1.983-1.05-3.15.116-.933.7-1.983 1.75-2.1.466 0 .933.117 1.166.466.35.35.584.934.817 1.4.467.7 1.4 1.167 2.333 1.05.934-.116 1.634-.816 1.984-1.633.7-1.75.116-3.966-.934-5.6-1.166-1.75-3.033-2.8-5.133-3.15-2.1-.35-4.433 0-6.3 1.167a6.79 6.79 0 00-2.683 3.033c-1.4 2.1-2.217 4.55-1.75 7.233.35 2.1 1.516 3.85 3.15 5.25 1.633 1.4 3.5 2.684 4.666 4.55 1.05 1.75 1.517 3.734.817 5.6-.35.817-.933 1.634-1.75 2.1-.933.584-2.1.817-3.15 1.167-.933.35-1.75.817-2.333 1.633-.584.817-.7 1.75-.467 2.684.7 2.1 2.917 2.8 4.9 2.566 1.167-.116 2.333-.583 3.383-1.05.934-.35 1.867-.816 2.684-1.283 1.75-.933 3.266-2.216 4.433-3.966 1.283-1.867 1.633-4.084 1.75-6.3.233-1.634.117-3.734-1.05-5.484z" fill="#B17AFE"></path><path d="M11.084 7.584c-.467-.234-.933.233-1.167.583-.233.233-.35.583-.466.933-.117.584-.234 1.284-.35 1.867 0 .467 0 .933.35 1.284.35.35.816.233 1.166-.117.35-.35.467-1.05.584-1.517.116-.583.233-1.167.233-1.75.117-.467.117-1.05-.35-1.283zm17.15-.934c-.117-.466-.583-.466-1.05-.35-.817.35-1.633 1.05-1.867 1.984v.583c0 .234.117.35.234.35.466.234.933-.116 1.283-.35.35-.35.817-.583 1.05-1.05.35-.35.467-.7.35-1.166zM10.617 37.334c-.35-.35-.816-.233-1.05.117-.233.35-.233.933-.116 1.4.116.816.466 1.75 1.166 1.4.467-.234.467-.934.467-1.284-.117-.583-.117-1.283-.467-1.633zm13.65 2.566c-.466.35-.466 1.05-.233 1.517 0 .117.117.234.233.35.117.35.35.584.584.7.466.35 1.166.117 1.283-.466.233-.584 0-1.4-.35-1.867-.35-.233-.933-.467-1.517-.233z" fill="#ADE2FF"></path><path d="M48.65 17.384c-.35 0-.583.117-.7.35a1.611 1.611 0 00-.35.467 3.55 3.55 0 00-.583.817c-.117.116-.117.233-.233.35-.233.466-.467.933-.35 1.4.233.7.933.35 1.283.116.467-.35.817-.816 1.167-1.283.233-.467.583-1.167.35-1.75-.117-.233-.35-.467-.584-.467zm13.067 19.251c-.233-.234-.7-.467-1.05-.467-.116 0-.233 0-.466.117-.234.116-.35.466-.35.7v.233c.233.7.7 1.283 1.4 1.633.583.35 1.516.35 1.633-.466 0-.35-.117-.584-.35-.817-.233-.233-.583-.583-.817-.933zm3.15-34.417c-.233 0-.35.116-.583.116-.933.234-1.633 1.4-1.983 2.217-.234.467-.467 1.4.233 1.517.35.116.583-.117.7-.35.233-.234.467-.584.7-.817.467-.583.933-1.05 1.283-1.633.35-.467.234-1.05-.35-1.05z" fill="#A8FFF3"></path><path d="M2.45 56.468c-.466-.584-1.4-.7-1.866-.117-.467.35-.7 1.05-.467 1.633.117.233.35.467.584.584.466.35 1.05.35 1.516 0a1.5 1.5 0 00.234-2.1z" fill="#F8526B"></path><path d="M1.284 56.467c-.117-.116-.117-.116-.233-.116-.117 0-.234 0-.234.116l-.233.234c-.117.116-.117.116-.117.233s0 .233.117.233c.117.117.117.117.233.117.117 0 .234 0 .234-.117.116 0 .116-.116.233-.233s.117-.117.117-.233c0-.117-.117-.234-.117-.234z" fill="#FFA8B5"></path><path d="M91.118 45.968a4.308 4.308 0 00-3.034-2.8c-3.616-.934-6.65 1.866-9.566 3.616-3.15 1.867-6.767 3.15-10.5 3.15-6.767-.233-12.134-6.066-19.017-5.6-3.383.234-6.417 1.867-9.567 3.034-1.516.583-3.15 1.166-4.9 1.283-1.983.233-3.85-.117-5.716-.7-3.5-.933-7-2.45-10.734-2.683-3.383-.117-6.65.933-8.516 3.85-.467.583-.7 1.283-.934 1.983-1.166 2.45-1.283 5.367-.116 7.7 1.516 3.033 4.783 4.55 7.933 5.25 3.733.817 7.7.7 11.317-.467 3.383-1.05 6.533-3.033 10.15-3.616 1.983-.35 3.966 0 5.833.583l5.6 1.75c3.733 1.283 7.467 2.8 11.083 4.55 1.75.817 3.5 1.75 5.367 2.333 1.633.584 3.5.7 5.25.467 6.767-.7 12.717-5.483 16.45-10.967.933-1.4 1.633-2.8 2.333-4.316.584-1.4 1.167-2.917 1.4-4.434.35-1.166.35-2.683-.116-3.966z" fill="#F8526B"></path><path d="M23.8 56.584c-.932.234-1.982.817-2.916.584-.116 0-.233 0-.233-.117v-.117c.117-.233.117-.466.233-.583.234-.466.584-.816.934-1.166 1.05-1.167 3.383-2.567 2.1-4.434-1.167-1.75-3.617-.933-5.367-.7-1.05.117-2.1 0-3.15.117-.817.117-1.75.35-2.333 1.05-.584.7-.7 1.75-.117 2.45.467.816 1.517 1.166 2.45 1.166 1.05-.116 1.867-.816 2.917-.7.35 0 .466.117.466.467-.116.233-.233.467-.35.817-.583.7-1.283 1.4-1.75 2.1-.466.7-.7 1.517-.583 2.333.233.817.933 1.284 1.75 1.4.933.117 1.983-.233 2.917-.35 1.05-.117 1.983-.233 3.033-.35.817-.117 1.75-.467 2.333-1.283.467-.584.467-1.4 0-2.1-.466-.934-1.4-.7-2.333-.584zm13.651-5.6c-.233 0-.35-.116-.583-.116-.933-.234-2.1-.117-2.8.466-.35.234-.7.584-.933.817-.467.467-.934.933-1.167 1.517-.467.816-.583 1.75-.233 2.566.7 1.75 2.45 2.567 4.316 2.334.817-.117 1.634-.584 2.334-1.167.7-.583 1.4-1.4 1.633-2.217.233-.816.117-1.983-.35-2.8-.467-.816-1.283-1.283-2.217-1.4zm-3.033 4.667c-.117-.117-.117-.233-.117-.35 0 0 0-.117.117-.117.117-.466.467-1.283 1.05-1.05.467.234.583 1.05.35 1.4-.233.584-1.05.467-1.4.117zm24.266-4.2c-.816-.467-1.866-.817-2.8-.7-1.05.117-1.983.467-2.8 1.05-.933.583-1.75 1.283-2.683 1.75-.234.117-.584.35-.817.233-.233 0 0 0-.117-.116 0-.117 0-.467.117-.584.35-.816.467-1.633.35-2.45-.116-.816-.816-1.75-1.75-1.4-.466.117-.7.584-.933 1.05-.233.584-.584 1.167-.817 1.75-.466 1.05-.816 2.217-1.166 3.267-.234.933-.584 2.1 0 3.033.583.817 1.516 1.167 2.45 1.05 1.05-.116 1.866-.7 2.566-1.516.7-.7 1.633-1.517 2.684-1.75.466-.117 1.05-.117 1.283.233.35.35.35.933.233 1.4-.117 1.05-.7 2.1-.467 3.15.234.933.934 1.633 1.75 1.867.934.233 1.867 0 2.684-.584 1.75-1.283 2.216-3.85 2.333-5.833.233-1.983-.466-3.85-2.1-4.9zm19.484 3.15c-1.05-1.75-3.267-2.333-5.134-2.217-2.216.117-4.316 1.05-6.066 2.334-1.517 1.166-2.45 2.916-2.8 4.666-.35 1.75-.35 4.084.933 5.484.7.7 1.75 1.05 2.683 1.166.934.117 1.984.117 2.917 0 1.867-.233 4.083-1.166 5.25-2.8.583-.816.933-2.1 0-2.8-.933-.7-2.333-.116-3.267.234-.7.233-1.4.466-2.1.583-.466.117-1.166.233-1.516-.233-.234-.35-.234-.934.116-1.284.467-.466 1.634-.35 1.867-.35 1.75-.116 3.617-.35 5.367-.816.933-.234 1.75-.7 2.1-1.634.233-.7.116-1.633-.35-2.333zm-6.184 2.1v-.233c.117-.234.234-.467.35-.584.35-.35.934-.7 1.284-.233.583.7-.817 1.05-1.634 1.05z" fill="#fff"></path><path d="M13.301 47.95c0-.35-.35-.583-.7-.466h-.233c-.7.467-1.284 1.167-1.517 1.867-.117.35.233.583.583.466.467-.233.817-.583 1.284-.816.233-.234.583-.584.583-1.05zm59.617 20.184c-.35-.583-1.167-.233-1.634-.117-.35.117-.7.234-.933.35-.233.117-.584.234-.7.584v.117c0 .116.117.233.117.233.233.233.7.233 1.05.233.233 0 .466-.117.7-.233h.233c.466-.117.816-.35 1.166-.7 0-.117.117-.35 0-.467zm13.416-24.15c-.233-.816-1.75 0-2.217.234-.35.233-.7.466-.816.816 0 .467.35.584.7.584.466-.117.933-.234 1.4-.467.35-.117.7-.35.816-.7.117 0 .117-.233.117-.467zm-40.6 1.517c-.233-.117-.466-.117-.583 0-.233 0-.35.117-.583.233-.467.234-.817.467-1.284.817-.233.233-.116.583.117.7.117.117.35.117.467 0 .7-.117 1.516-.35 1.983-.933.35-.234.233-.584-.117-.817z" fill="#FFA8B5"></path><path d="M92.75 36.634c-.466-.35-1.05-.233-1.516.117-.583.35-1.05.817-1.283 1.517a1.98 1.98 0 000 1.166c.116.35.467.467.933.584.817.116 1.633-.35 2.1-1.05.35-.7.467-1.867-.233-2.334z" fill="#F8526B"></path><path d="M91.818 37.101c0-.117-.117-.117-.234-.233h-.35c-.116 0-.116.116-.233.116s-.117.117-.233.234v.35c0 .116.116.116.233.233h.35c.117 0 .117-.117.233-.117.117 0 .117-.116.234-.233v-.35z" fill="#FFA8B5"></path><path d="M91.817 60.434c-.35-.7-1.05-.7-1.516-.35-.35.233-.584.467-.7.817-.117.466.116.933.583 1.05.817.233 2.1-.584 1.633-1.517z" fill="#F8526B"></path><path d="M91 60.434a.251.251 0 00-.233-.234c-.117 0-.233-.116-.35 0-.117 0-.234.117-.35.234-.117.116-.117.116-.117.233s0 .233.117.233c.117.117.117.117.233.117.117 0 .234 0 .234-.117.116 0 .116-.116.233-.116.233-.234.35-.35.233-.35z" fill="#FFA8B5"></path><path d="M33.717 19.717c-.117 0-.233.116-.35.116-.467.35-.7.934-.817 1.4-.116.35-.35 1.167.117 1.4.466.234 1.05-.35 1.283-.816.35-.467.583-1.05.583-1.517 0-.35-.35-.7-.816-.583zM36.4 10.85s-.117 0-.117.117c-.35.233-.583.933-.233 1.283.467.35 1.05-.233 1.167-.583a.744.744 0 000-.7c-.234-.234-.584-.234-.817-.117zm3.967 24.85c0-.117-.117-.117-.117-.233-.233-.234-.583-.117-.7.116-.116.233-.116.584-.233.934 0 .233-.117.583-.117.816.117.233.467.35.7.233.233-.116.35-.466.35-.7.117-.35.117-.583.117-.933.117-.117.117-.233 0-.233z" fill="#FFE594"></path><path d="M74.2 11.317c-.583.116-1.166.466-1.633.816-.466.35-.933.934-.816 1.634v.116c.233.7.933.234 1.283 0 .467-.35.817-.7 1.05-1.05l.35-.35c.233-.233.467-.466.35-.816 0-.35-.233-.467-.583-.35zm-2.333 30.1c-.35-.117-.816.116-1.166.35-.234.233-.35.466-.35.7 0 .816.933.583 1.4.233.233-.117.466-.35.583-.7 0-.117-.233-.467-.467-.583zm11.9-12.95c-.117-.234-.466-.467-.7-.584-.35-.116-.7.117-.7.467 0 .233 0 .35.233.467l.35.35.35.35c.234.116.467 0 .584-.234.117-.233 0-.583-.117-.816z" fill="#CFADFE"></path><path d="M31.267 64.634v-.116c-.35-.817-1.516-.817-1.983-.117 0 .117-.117.233-.117.35-.35.583-.466 1.167-.116 1.867.466.816 1.516.7 2.1.116.466-.583.583-1.516.116-2.1z" fill="#F8526B"></path><path d="M30.334 64.517c0-.116-.116-.116-.116-.233-.117 0-.117-.117-.234-.117-.116 0-.233 0-.233.117l-.117.117c-.116.117-.116.117-.116.233v.117a.25.25 0 00.233.233c.117 0 .233.117.35 0h.117c.116 0 .116-.116.116-.116 0-.117.117-.117.117-.234v-.117c-.117.117-.117 0-.117 0z" fill="#FFA8B5"></path></g><defs><clipPath id="clip0_1106_4892"><path fill="#fff" d="M0 0h93.217v70H0z"></path></clipPath></defs></svg>