<svg xmlns="http://www.w3.org/2000/svg" width="122" height="70" fill="none"><g clip-path="url(#clip0_1106_5107)"><path d="M27.3 53.8c16.2-2.4 41.2-4.4 66.4.3 11.7 2.2 23.1-4.7 27-16.3 0-.1 0-.1.1-.2 4-12.7-3-26.3-15.5-30C84.4 1.3 50.2-5 16.5 5.9 4 9.9-2.9 23.7 1.2 36.6c.1.2.1.4.2.6C5 48.5 15.9 55.5 27.3 53.8z" fill="url(#paint0_linear_1106_5107)"></path><path opacity=".25" d="M97.5 30.8s.5-3.2 3.7-3.1c-5.6-2.7-7.3-.3-7.2.3.1.6-1.4 1.5.3 2.4 1.7.9 3.2.4 3.2.4z" fill="#CE5800"></path><path opacity=".25" d="M95.7 33.6s8.4 3 9.8 3.2c1.4.2 2.2-.2 2.6-1.4.3-1.2.5-9.4-6.5-12 3.5 4.3 5.5 11.5-5.9 10.2z" fill="#CE5800"></path><path opacity=".3" d="M83.1 2.4c4.3.7 4.5 6.8.3 7.8C43 19.8 40 53.3 12.9 42.9 2.1 38.7-2.4 25.8 3.7 16 6.6 11.4 11 7.7 16.5 5.9 40-1.7 63.8-.9 83.1 2.4zm15.5 3.3c-8.5-1.9-11.1 3.8 0 6.4 11.1 2.5 11.5-3.8 0-6.4z" fill="url(#paint1_linear_1106_5107)"></path><path opacity=".2" d="M19.129 12.816a6.2 6.2 0 10-12.24-1.986 6.2 6.2 0 0012.24 1.986zM113.8 23.6a2.7 2.7 0 100-5.4 2.7 2.7 0 000 5.4zM95.3 54.4c-.3-2.3-2-8.2-10.3-8.2l.6 6.7c2.7.4 5.4.8 8 1.3.6 0 1.2.1 1.7.2z" fill="#49270D"></path><path d="M85 66.9H35.5c-3.7 0-6.7-3-6.7-6.7v-7.3c0-3.7 3-6.7 6.7-6.7H85c3.7 0 6.7 3 6.7 6.7v7.3c0 3.7-3 6.7-6.7 6.7z" fill="url(#paint2_linear_1106_5107)"></path><path opacity=".2" d="M34 66.7c0-3.3-1.4-5.9-5.2-6.5v.5c.2 3 2.4 5.4 5.2 6z" fill="#49270D"></path><path d="M35.3 50.7c0-.8.7-1.5 1.5-1.5h3.1c1.3 0 2 .1 2.6.3 1.5.6 2.4 1.9 2.4 3.8 0 1.4-.7 2.9-2 3.6 0 0 .2.2.5.8l1.7 3.1c.4.7-.1 1.5-.9 1.5H43c-.4 0-.7-.2-.9-.5L40 57.9h-1.5v3.5c0 .5-.4 1-1 1h-1.2c-.5 0-1-.4-1-1V50.7zm4.6 4.5c1 0 1.7-.6 1.7-1.6 0-.7-.2-1.2-.8-1.4-.3-.1-.7-.2-1.2-.2h-1.1v3.2h1.4zm11.7-2.6c3 0 5.4 2 5.4 5s-2.4 5-5.4 5c-3 0-5.4-2-5.4-5 0-2.9 2.4-5 5.4-5zm0 7.3c1.2 0 2.2-.9 2.2-2.3s-1-2.3-2.2-2.3c-1.2 0-2.2.9-2.2 2.3 0 1.5 1 2.3 2.2 2.3zm11.9-7.3c3 0 5.4 2 5.4 5s-2.4 5-5.4 5c-3 0-5.4-2-5.4-5 0-2.9 2.4-5 5.4-5zm0 7.3c1.2 0 2.2-.9 2.2-2.3s-1-2.3-2.2-2.3c-1.2 0-2.2.9-2.2 2.3 0 1.5 1 2.3 2.2 2.3zm7.8-7h1.5c.4 0 .8.4.8.8v.6c.4-.7 1.3-1.6 2.8-1.6 1.2 0 2.2.5 2.7 1.6.5-.8 1.6-1.6 3.1-1.6 1.7 0 3.1.9 3.1 3.6v5.2c0 .5-.4.9-.9.9H83c-.5 0-.9-.4-.9-.9v-4.7c0-.7-.1-1.2-.7-1.2-1.4 0-1.8 1.4-1.8 2.8v3.1c0 .5-.4.9-.9.9h-1.3c-.5 0-.9-.4-.9-.9v-4.7c0-.7-.1-1.2-.7-1.2-1.5 0-1.8 1.5-1.8 2.8v3.1c0 .5-.4.9-.9.9h-1.3c-.5 0-.9-.4-.9-.9v-7.8c-.4-.5-.1-.8.4-.8z" fill="#fff"></path><path d="M117.6 54.3a2 2 0 100-4 2 2 0 000 4zM19.2 3.4a1.7 1.7 0 100-3.4 1.7 1.7 0 000 3.4z" fill="#008DD3"></path><path d="M27.5 70a5 5 0 100-10 5 5 0 000 10z" fill="url(#paint3_linear_1106_5107)"></path><path opacity=".3" d="M23 64.7v.3c0 1.3 1.2 2.4 2.5 2.3h.1c2.2-.1 4-1.9 4.2-4.2V63c.1-1.3-1-2.5-2.3-2.5h-.3c-2.3.2-4.1 2-4.2 4.2z" fill="url(#paint4_linear_1106_5107)"></path><path opacity=".3" d="M35.3 47.7c-4.5 0-7.5 8.3.4 8.3h42.8c7.6 0 8.6-8.3-.6-8.3H35.3z" fill="url(#paint5_linear_1106_5107)"></path><path d="M9.4 17a7.6 7.6 0 100-15.2 7.6 7.6 0 000 15.2z" fill="url(#paint6_linear_1106_5107)"></path><path opacity=".3" d="M2.6 8.9v.4c0 2 1.8 3.7 3.8 3.6h.1c3.4-.2 6.1-3 6.3-6.3v-.1c.1-2-1.5-3.8-3.6-3.8h-.4c-3.3.1-6 2.8-6.2 6.2z" fill="url(#paint7_linear_1106_5107)"></path><path d="M98.2 63.7a3.7 3.7 0 100-7.4 3.7 3.7 0 000 7.4z" fill="url(#paint8_linear_1106_5107)"></path><path opacity=".3" d="M94.9 59.8v.2c0 1 .9 1.8 1.8 1.7 1.6-.1 3-1.4 3.1-3.1.1-1-.7-1.8-1.7-1.8h-.2c-1.6 0-2.9 1.3-3 3z" fill="url(#paint9_linear_1106_5107)"></path><path d="M110.9 23a3.9 3.9 0 100-7.8 3.9 3.9 0 000 7.8z" fill="url(#paint10_linear_1106_5107)"></path><path opacity=".3" d="M107.5 18.9v.2c0 1 .9 1.9 1.9 1.8 1.7-.1 3.1-1.5 3.2-3.2.1-1-.8-1.9-1.8-1.9h-.2c-1.7 0-3.1 1.4-3.1 3.1z" fill="url(#paint11_linear_1106_5107)"></path><path opacity=".25" d="M44.6 39.2s3.3 2 6.8-.9c0 .7.4 1.3 1.5 1.3h3.3c.8 0 1.6-.7 1.5-2.2 0-1.5-.1-10.1-.2-11.6s-1.3-5.6-5.7-6.5c.9 6.4 2.7 13.7 2.7 14 0 .3-4.7 2.7-4.7 2.7l-5.2 3.2z" fill="#CE5800"></path><path d="M50.3 26.6h.5v-.3c-.1-1.6-1.3-2.1-2.6-2-1.2.1-2.4.6-3.4 1.3-.8.5-1.7.2-2.2-.6l-.6-1.2c-.5-.9-.3-2.2.6-2.8 1.6-1 3.8-1.9 6-2.1 4.2-.3 8.1 2.2 8.2 7.5.1 3.5.1 7 .2 10.5 0 .8-.5 1.5-1.2 1.5-.9 0-1.6.1-2.5.1-.7 0-1.3-.6-1.3-1.5v-.8h-.1c-1 1.9-2.9 3-4.8 3.2-3.2.3-5.7-2.1-5.9-5.3-.5-5.2 5.3-7.4 9.1-7.5zm-2 7.9c1.6-.1 2.8-2.1 2.7-3.6v-.5h-.5c-1.8.1-4 .8-3.9 2.6.1.9.7 1.6 1.7 1.5z" fill="url(#paint12_linear_1106_5107)"></path><path opacity=".25" d="M17.6 37.9s4.1 6.4 10.7 5.4c6.7-1 7.6-5.3 7.6-5.3h-2.3s.4 2.8.5 3.4c.1.6 1 .6 2.8.3 1.8-.2 3.1-.4 3.3-1.4.2-1.1-.2-4.9-.5-7.3-.3-2.4-.8-6-.9-7-.1-1-1.1-1.3-2.8-1.1.1 2.4-.3 9.7-.3 9.7l-4.2 3-13.9.3z" fill="#CE5800"></path><path d="M25.3 14.5c2.4-.5 5.6-.4 8.2.7 1.1.5 1.6 2 1.1 3.2-.2.5-.4.9-.6 1.4-.4 1-1.4 1.4-2.3 1.1-1.5-.6-3.4-.8-4.9-.6-3.8.7-6.9 4.4-6.1 9.1.8 4.4 4.3 7.3 8.1 6.5 1.5-.3 3-1.2 4.2-2.4.3-.3.4-.8.2-1.3l-.2-.3c-.2-.4-.5-.6-.9-.6-.3.1-.8.1-1 .2-.7.1-1.4-.5-1.5-1.4-.1-.8-.2-1.5-.3-2.3-.3-.8.2-1.7 1-1.8 2.2-.4 3.8-.7 6-1 .8-.1 1.5.6 1.6 1.5l1.2 12c.1.8-.4 1.5-1.1 1.6-.8.1-1.4.2-2.2.3-.7.1-1.3-.5-1.4-1.3v-.4h-.1c-1.2 1.7-3.5 3-5.7 3.5-6.4 1.3-12.4-3.5-13.9-10.9-1.7-8.4 4-15.3 10.6-16.8z" fill="url(#paint13_linear_1106_5107)"></path><path opacity=".25" d="M60.5 36.8c0 1.7.1 2.7 1.9 2.8 1.8.1 3.5.2 4-.3.5-.6.4-1.9.4-3.6 0-1.7-.6-9.7 1.7-10.7-2.8-.7-5.4.8-5.4.8l-2.6 11zm4-17.8c1.3 0 2.7.5 2.5 2.7-.1 2.2-2.8.8-2.8.8l.3-3.5zm6.1 17.9c-.1 1.6-.2 2.6 1.2 2.8 1.4.2 3.5.6 4.5.1s1-1.6 1-3.7 0-8.5 1.1-10c-2.3-1.8-3.4-1.2-3.4-1.2l-4.4 12zm10.1 1.2c-.1 1 0 2.5 1 2.6 1 0 1.3-.2 2.3.2 1 .5 2.1.2 2.7-.6.6-.8 1-5 1.3-8.6.3-3.6.2-9.5-3.5-11.2 1.2 5.4-3.8 17.6-3.8 17.6z" fill="#CE5800"></path><path d="M62.1 18.9h2.5c.9 0 1.7 1 1.6 2.1v.1c0 .2.2.3.3.2 1-1.3 2.7-2.7 5.1-2.6 2.1.1 3.7 1.2 4.6 3 .1.3.5.4.7.1 1.2-1.3 3.3-2.4 5.6-2.2 6.7.7 4.5 12.7 3.8 18.5-.2 1.3-1 2.3-2 1.7-.5-.3-1.2-.5-1.8-.3-1 .3-1.9-.7-1.8-1.8.3-3.3.6-6.5.9-9.8.1-1.4 0-2.5-1.2-2.6-2.6-.3-3.6 2.5-3.8 5.4-.2 2.7-.3 4.3-.4 6.6-.1.9-.7 1.6-1.5 1.5-1-.1-1.8-.1-2.8-.2-.8-.1-1.4-.8-1.3-1.7.1-3.3.3-6.6.4-9.9.1-1.4-.1-2.5-1.3-2.5-2.7-.1-3.5 2.9-3.5 5.6-.1 2.7-.1 4.3-.1 6.6 0 .9-.7 1.6-1.4 1.6h-2.8c-.8 0-1.4-.7-1.4-1.7V20.7c-.1-.9.7-1.8 1.6-1.8z" fill="url(#paint14_linear_1106_5107)"></path><path opacity=".25" d="M90.4 35.7s-.1 6.7 6.5 8.6c6.6 1.8 10.2-.7 9.7-2.1-.5-1.4-1.1-5.2-3.3-4.5-1.4 2.4-3.3 3-3.3 3l-9.6-5z" fill="#CE5800"></path><path d="M100.6 23c4.2 1.2 7.6 5.9 6.4 11.3-.3 1.1-1.2 1.7-2.1 1.5-3-.8-6-1.6-9.1-2.2.1 2.4 1.6 3.9 3.4 4.3 1.2.3 2.4.1 3.6-.3.8-.2 1.5.3 1.7 1.2.2.6.3 1.2.4 1.9.2.9-.2 1.8-1 2.1-1.9.7-4.2.7-6.2.3-4.7-.9-8.4-6.5-7.7-12 .7-5.5 5.7-9.5 10.6-8.1zm.3 8c.4.1.8-.3.7-.8-.1-1.2-.8-2.2-2-2.5-1.7-.4-2.7.8-3.3 2.2 1.9.4 3 .7 4.6 1.1z" fill="url(#paint15_linear_1106_5107)"></path><path d="M5.6 4c.9-.9 2.2-1.2 2.6-.8.4.4-1 .8-1.7 1.5-.6.7-1.9.4-.9-.7zm90.5 53.6c.6-.6 1.5-.8 1.8-.5.3.3-.7.6-1.1 1-.5.5-1.4.2-.7-.5zM55.4 1.9c-2.1 0-2.6-1.4.6-1.4 2.3 0 3.9.1 4.2.5.4.4.1.7-.9.6-1.2-.1-2.4.3-3.9.3zm54 14.1c-1.1.6-1 1.7.5.8 1.5-.7.7-1.4-.5-.8zm-91.3 7.9c-1.4 2.2-3.1.8-1.9-1.4 1.2-2.2 3.8-4.8 5.9-5.7 2.1-.8 2.7.6.3 1.6-2.3 1-3.4 4.1-4.3 5.5zm13.5 4.2c-2 .4-2.6-1.4-.4-1.8 2.3-.4 4.4-.6 4.6-.2.3.4-1.9 1.6-4.2 2zM43.5 23c-1.2.5-2-1.1-.1-2.1 2-1 4.2-1.7 5-1.3.6.3-1.7 1.2-2.9 1.7-1.1.5-1.3 1.3-2 1.7zm18.3 1.5c-1.1-.7-1.3-4.5.2-4.9 1.4-.4 2.8-.1 2.9.4.1.5-1.8.4-2.2.8-.4.3.1 4.3-.9 3.7zM93.4 27c-1.1.1-.5-1.8 1.7-2.9 2.3-1.1 4.6-1.1 5.2-.2.7.9-1.4 1-3.6 1.2-1.9.3-2.1 1.8-3.3 1.9z" fill="#fff"></path></g><defs><linearGradient id="paint0_linear_1106_5107" x1="91.856" y1="66.842" x2="29.615" y2="-7.334" gradientUnits="userSpaceOnUse"><stop stop-color="#FF7300"></stop><stop offset="1" stop-color="#FFDF43"></stop></linearGradient><linearGradient id="paint1_linear_1106_5107" x1=".964" y1="22.422" x2="107.061" y2="22.422" gradientUnits="userSpaceOnUse"><stop stop-color="#fff"></stop><stop offset="1" stop-color="#fff"></stop></linearGradient><linearGradient id="paint2_linear_1106_5107" x1="79.19" y1="75.497" x2="41.298" y2="37.606" gradientUnits="userSpaceOnUse"><stop stop-color="#FF881D"></stop><stop offset="1" stop-color="#FF531D"></stop></linearGradient><linearGradient id="paint3_linear_1106_5107" x1="30.994" y1="68.542" x2="23.954" y2="61.501" gradientUnits="userSpaceOnUse"><stop stop-color="#1367D7"></stop><stop offset="1" stop-color="#27ADFF"></stop></linearGradient><linearGradient id="paint4_linear_1106_5107" x1="28.433" y1="65.98" x2="24.292" y2="61.84" gradientUnits="userSpaceOnUse"><stop stop-color="#fff"></stop><stop offset="1" stop-color="#fff"></stop></linearGradient><linearGradient id="paint5_linear_1106_5107" x1="30.829" y1="51.861" x2="84.533" y2="51.861" gradientUnits="userSpaceOnUse"><stop stop-color="#fff"></stop><stop offset="1" stop-color="#fff"></stop></linearGradient><linearGradient id="paint6_linear_1106_5107" x1="14.756" y1="14.77" x2="4.028" y2="4.042" gradientUnits="userSpaceOnUse"><stop stop-color="#1367D7"></stop><stop offset="1" stop-color="#27ADFF"></stop></linearGradient><linearGradient id="paint7_linear_1106_5107" x1="10.853" y1="10.867" x2="4.543" y2="4.557" gradientUnits="userSpaceOnUse"><stop stop-color="#fff"></stop><stop offset="1" stop-color="#fff"></stop></linearGradient><linearGradient id="paint8_linear_1106_5107" x1="100.756" y1="62.603" x2="95.563" y2="57.41" gradientUnits="userSpaceOnUse"><stop stop-color="#1367D7"></stop><stop offset="1" stop-color="#27ADFF"></stop></linearGradient><linearGradient id="paint9_linear_1106_5107" x1="98.866" y1="60.714" x2="95.812" y2="57.659" gradientUnits="userSpaceOnUse"><stop stop-color="#fff"></stop><stop offset="1" stop-color="#fff"></stop></linearGradient><linearGradient id="paint10_linear_1106_5107" x1="113.633" y1="21.859" x2="108.176" y2="16.402" gradientUnits="userSpaceOnUse"><stop stop-color="#1367D7"></stop><stop offset="1" stop-color="#27ADFF"></stop></linearGradient><linearGradient id="paint11_linear_1106_5107" x1="111.648" y1="19.874" x2="108.438" y2="16.664" gradientUnits="userSpaceOnUse"><stop stop-color="#fff"></stop><stop offset="1" stop-color="#fff"></stop></linearGradient><linearGradient id="paint12_linear_1106_5107" x1="48.963" y1="39.528" x2="48.963" y2="18.915" gradientUnits="userSpaceOnUse"><stop stop-color="#FFEEC8"></stop><stop offset="1" stop-color="#fff"></stop></linearGradient><linearGradient id="paint13_linear_1106_5107" x1="26.716" y1="42.468" x2="26.716" y2="14.233" gradientUnits="userSpaceOnUse"><stop stop-color="#FFEEC8"></stop><stop offset="1" stop-color="#fff"></stop></linearGradient><linearGradient id="paint14_linear_1106_5107" x1="73.845" y1="40.196" x2="73.845" y2="18.785" gradientUnits="userSpaceOnUse"><stop stop-color="#FFEEC8"></stop><stop offset="1" stop-color="#fff"></stop></linearGradient><linearGradient id="paint15_linear_1106_5107" x1="98.575" y1="43.402" x2="98.575" y2="22.753" gradientUnits="userSpaceOnUse"><stop stop-color="#FFEEC8"></stop><stop offset="1" stop-color="#fff"></stop></linearGradient><clipPath id="clip0_1106_5107"><path fill="#fff" d="M0 0h121.9v70H0z"></path></clipPath></defs></svg>