<svg xmlns="http://www.w3.org/2000/svg" width="88" height="70" fill="none"><g clip-path="url(#clip0_1106_4785)"><path d="M33.955 55.185c-.232.714-.548 1.408-.844 2.101a149.207 149.207 0 01-1.834 4.203c-.253.546-.443 1.24-1.14 1.26h-.421c-.59 0-1.202-.062-1.793-.083-2.994-.084-5.989-.147-8.984-.294-.19 0-.4-.021-.59-.021-1.287-.063-2.573-.19-3.838-.442-.296-.063-.59-.126-.886-.21-.169-.042-.359-.105-.527-.147-.254-.084-.275-.021-.275-.273s.296-.63.401-.862c.106-.23.232-.483.338-.714.084-.168.147-.316.232-.484.063-.126.126-.273.19-.399 0 0 0-.02.02-.02l1.392-2.838c.401-.777.78-1.555 1.202-2.333.59-1.113 1.181-2.227 1.793-3.34.063-.127.084-.253.042-.358-.042-.168-.19-.294-.358-.357-.106-.147-.274-.252-.506-.168-.275.084-.549.147-.823.23-.949.253-1.898.421-2.868.526-.633.063-1.244.126-1.877.126-.738.021-1.92.19-2.468-.42-.463-.526-.506-1.387-.59-2.06a35.03 35.03 0 01-.232-2.963c-.021-.42-.063-.903.21-1.26.212-.274.591-.442.908-.568a110.958 110.958 0 015.188-2.06c.57-.21 1.16-.42 1.729-.63a68.48 68.48 0 014.598-1.429c.02 0 .042-.02.063-.02a43.155 43.155 0 013.353-.757c.316-.063.654-.126.97-.169a32.709 32.709 0 015.547-.42c.442 0 .885 0 1.307.063.527.063.59.337.59.82.022.904-.126 1.786-.379 2.648-.57 2.06-1.518 3.992-2.362 5.926-.042.084-.063.147-.105.231-.127.315-.274.63-.401.946 0 .02-.021.042-.021.042-.717 1.639-1.413 3.257-2.13 4.896a.639.639 0 000 .483c.042.127.147.21.295.232l4.492.798c.337.063.696.126 1.033.19.085.02.254.02.338.083.148.105.105.105.021.295z" fill="#fff"></path><path d="M47.79 41.861c-.844-1.366-2.257-2.311-3.776-2.774-3.353-.987-6.77.63-8.71 3.405-2.32 3.341-2.193 7.712-.653 11.348a.474.474 0 01.02.378c.296.252.422.63.296 1.093l-.063.189c1.687 3.026 5.884 4.14 8.836 2.248 1.645-1.05 2.847-2.773 3.69-4.518a14.873 14.873 0 001.414-5.548c.105-1.954 0-4.118-1.055-5.82zm-5.505 10.024c-1.202.484-2.995.021-3.248-1.408-.21-1.155.549-2.605 1.772-2.774.97-.357 2.193.021 2.72.946.675 1.198-.02 2.732-1.244 3.236z" fill="#33B6B7"></path><path d="M65.061 41.588c-.442-.294-1.033-.315-1.54-.357a19.478 19.478 0 00-2.214-.064c-.316.021-.632.021-.927.064-.275.042-.338.105-.422.399-.338 1.345-.506 2.732-.76 4.077-.252 1.387-.527 2.753-.78 4.14-.084.462-.675.42-.886.126a42.251 42.251 0 01-5.63-9.961c-1.202.189-2.341.63-3.375 1.24.296.44.549.924.739 1.429.78 2.08.717 4.476.38 6.64-.19 1.156-.486 2.312-.929 3.405.106.084.19.21.211.378a30.01 30.01 0 001.097 6.115c.907.021 1.813.021 2.7.042h.758c.148 0 .443-.042.57 0h.042c0-.063-.021-.147-.021-.21-.021-.252-.063-.525-.084-.778-.233-1.996-.443-3.992-.675-5.989-.042-.462.548-.588.843-.336 1.202 1.05 2.383 2.123 3.585 3.173l1.709 1.513c.57.505 1.075 1.177 1.919 1.03.717-.126 1.497-.231 2.172-.441.337-.105.295-.252.337-.589l.127-.945.506-4.203c.337-2.753.717-5.485.97-8.238.063-.61.127-1.324-.422-1.66z" fill="#F9DE6A"></path><path d="M76.45 55.122c-.992.21-1.962.441-2.953.63-.907.19-1.898.294-2.657-.315-.612-.483-.907-1.324-.485-2.038.358-.63 1.118-.82 1.792-.841 1.287-.084 2.742.252 3.775-.757.992-.987.296-2.773-1.096-2.858-1.413-.084-3.121.904-4.24-.44-.8-.947-.61-2.523.465-3.174 1.35-.82 2.91.189 4.302-.336 1.37-.526 1.392-2.396.59-3.384-1.096-1.366-2.952-1.576-4.576-1.429-1.75.147-3.585.484-5.167 1.261.253.483.338 1.093.274 1.744-.316 3.258-.759 6.515-1.16 9.772V53a.411.411 0 01.17.273c.421 1.64.822 3.3 1.243 4.939.085.336.106.735.464.861.296.106.717.063 1.013.063.801 0 1.624-.02 2.425-.063a39.742 39.742 0 004.977-.609c.274-.042.802-.042.97-.294.169-.252.127-.925.127-1.219 0-.63-.085-1.24-.253-1.828z" fill="#7CB413"></path><path d="M82.735 15.361c-.021.063-.021.126-.043.21-.126.715-.358 1.472-.864 1.997l-.021.02c-.085.085-.169.148-.253.211-.696.525-1.287.441-1.856.147-.654-.357-1.266-1.03-1.898-1.429a3.022 3.022 0 00-.802-.357c-1.139-.315-2.32.084-3.269.84-.105.085-.231.19-.337.295l-.063.063c-.422.42-.802.924-.928 1.492-.148.567-.021 1.135.253 1.639a3.782 3.782 0 00.696.84c.97.883 2.362 1.282 3.585 1.66.38.127.78.232 1.16.358.928.315 1.856.693 2.615 1.303.148.126.295.252.422.4.991 1.07 1.35 2.626 1.202 4.055-.021.21-.042.4-.084.588a6.28 6.28 0 01-.401 1.261 6.784 6.784 0 01-.464.862 5.513 5.513 0 01-.506.714c-1.223 1.556-3.037 2.711-4.809 3.405-.506.21-1.012.357-1.54.504-1.328.336-2.699.462-4.09.462-.443 0-.886 0-1.33-.02-.505-.022-1.011-.043-1.539-.085-.843-.084-1.581-.336-2.13-1.008-.949-1.135-.843-2.774.296-3.741a2.721 2.721 0 011.033-.546c.316-.105.675-.126 1.012-.105.106.02.19.02.296.042.674.105 1.286.315 1.96.063.36-.126.676-.316.95-.547.19-.168.358-.357.506-.567a2.85 2.85 0 00.4-2.27 3.349 3.349 0 00-.674-1.303 4.341 4.341 0 00-.549-.525c-.653-.504-1.434-.652-2.214-.84-.696-.169-1.518-.442-1.708-1.22a.444.444 0 00-.253-.315c-.021 0-.042-.02-.063-.02.168-1.051.231-2.123.231-3.153 0-.567-.042-1.135-.105-1.681-.19-1.513-.611-3.005-1.286-4.371-.127-.231-.253-.483-.38-.715l.127-.378a8.62 8.62 0 011.602-2.71 9.38 9.38 0 012.32-1.934 8.328 8.328 0 011.519-.715c.105-.042.19-.063.295-.105.021 0 .042-.02.063-.02 1.666-.526 3.374-.421 5.083-.085.084.021.168.042.253.042.675.126 1.37.273 2.045.484.718.21 1.413.462 2.067.82.675.356 1.266.819 1.709 1.386a4.02 4.02 0 01.822 1.934c.105.903.063 1.807-.063 2.668z" fill="#fff"></path><path d="M65.631 19.712c-.126-1.808-.632-3.615-1.54-5.19-.126-.085-.231-.211-.231-.38a7.287 7.287 0 00-.464-.65c-1.371-1.787-3.27-2.838-5.462-3.3-4.176-.883-10.081-.799-12.464 3.404-.042.063-.085.105-.127.147l.063 3.426c.022.02.064.063.085.084 2.826 4.16 3.353 9.288 4.028 14.122.084.588.148 1.177.253 1.744.127.61.337.757.95.84a16.67 16.67 0 003.69.022c2.277-.232 4.492-1.009 6.369-2.333 1.708-1.198 3.1-2.879 3.838-4.833.886-2.207 1.181-4.729 1.012-7.103zm-6.559 3.51c-1.265 1.029-2.931.735-4.45.819-.21.02-.421-.168-.463-.358-.317-1.092-.506-2.206-.633-3.32-.253-.546-.063-1.135.443-1.47.527-.358 1.307-.4 1.919-.4 1.286 0 2.636.42 3.5 1.408.929 1.072.781 2.438-.316 3.32z" fill="#F8526B"></path><path d="M44.5 24.482c0 1.156 0 2.312-.022 3.489 0 .903-.02 1.786-.02 2.69a41.431 41.431 0 01-3.248.188c-.675.021-1.371.021-2.046.021a90.317 90.317 0 01-2.383-.084c-.021-.315-.063-.63-.085-.924-.042-.504-.105-1.009-.147-1.513-.127-1.114-.232-2.207-.38-3.32-.063-.568-.147-1.114-.21-1.682l-.444-3.32c-.063-.4-.105-.799-.168-1.198-.085-.525-.148-1.05-.232-1.555-.148-.904-.275-1.786-.443-2.69-.063-.42-.148-.82-.211-1.24a.387.387 0 00-.19-.294c.337-.735.675-1.45 1.012-2.207.211-.483.464-1.008.422-1.555-.042-.609-.485-1.008-1.054-1.176l-.253-.063a.48.48 0 00-.022-.379c-.716-1.555.254-3.236 1.582-4.077.042-.02.106-.063.148-.084a7.21 7.21 0 011.645-.714c1.096-.315 2.278-.336 3.31.02.402.148.76.337 1.055.59.317.252.57.567.78.903.422.714.591 1.576.57 2.48a4.66 4.66 0 01-.59 2.143 3.813 3.813 0 01-1.224 1.303c-.042.021-.063.042-.105.063-.105.021-.211.063-.274.147a2.523 2.523 0 01-.422.168c-.59.19-.337 1.135.253.946.232-.063.443-.168.654-.273l2.552.126c.02.546.02 1.114.042 1.66.042 1.45.063 2.9.084 4.35.042 2.333.063 4.686.063 7.061z" fill="#fff"></path><path d="M10.208 33.371c.148.568.274 1.135.422 1.681.063.274.147.568.21.841.064.21.085.651.296.798.19.127.654.085.886.106.232.02.485.02.717.02.548 0 1.096 0 1.624-.062a15.131 15.131 0 002.91-.547 59.76 59.76 0 00.232-7.775c-.021-.378.422-.589.738-.42 2.067 1.113 3.142 3.257 4.83 4.79.232.211.463.4.717.568.38.252.569.273.99.063.697-.357 1.393-.693 2.089-1.05l3.965-2.018a48.484 48.484 0 00-3.08-6.2 40.35 40.35 0 01-1.096 1.535c-.359.504-1.223.02-.844-.483a86.597 86.597 0 004.766-7.293 75.695 75.695 0 003.522-6.892c.148-.337.296-.652.443-.988.085-.21.274-.589.169-.799-.19-.42-1.181-.357-1.54-.399a55.551 55.551 0 00-4.196-.357 35.327 35.327 0 00-2.11-.063c-.548 0-1.307-.126-1.708.336-.442.504-.759 1.219-1.096 1.807-.338.568-.654 1.114-.991 1.681a1389.26 1389.26 0 00-4.345 7.377c-.316.525-1.118.084-.865-.463.127-1.849.085-3.72-.126-5.569a31.582 31.582 0 00-.95-4.833c-.168-.63-.315-1.429-.8-1.912-.528-.526-1.35-.337-2.004-.19a176.536 176.536 0 00-9.406 2.48c.548 2.417 1.097 4.834 1.645 7.271C7.255 20.93 8.31 25.45 9.407 29.967c.253 1.156.527 2.27.801 3.404z" fill="#F8C013"></path><path d="M1.266 4.833A9.919 9.919 0 000 8.743c-.064.63.906.608.97 0a8.558 8.558 0 011.138-3.426c.317-.547-.527-1.03-.843-.484zM86.53 34.716c-.358.946-.78 1.87-1.265 2.774-.295.547.548 1.051.843.484.528-.967.992-1.976 1.371-3.005.211-.568-.738-.82-.949-.253zM73.118 67.12c-1.435.274-2.89.547-4.324.8-.611.104-.358 1.05.253.945a312.11 312.11 0 014.324-.799c.611-.126.358-1.05-.253-.945zM5.758 52.326c-.169-.609-1.118-.336-.949.253.316 1.113.654 2.227.97 3.32.169.61 1.118.336.95-.252a197.133 197.133 0 00-.97-3.32zM46.482.441c-.169-.21-.527-.168-.696 0-.211.21-.169.483 0 .694.422.525.822 1.071 1.202 1.639.337.525 1.202.042.843-.484a19.803 19.803 0 00-1.35-1.849zm22.65 3.195a5.164 5.164 0 00-2.932 1.03c-.506.378 0 1.218.486.84.716-.546 1.518-.862 2.425-.904.653-.02.653-1.008.02-.966z" fill="#572C54"></path><path d="M9.174 14.584c.78 0 1.413-.63 1.413-1.408a1.41 1.41 0 00-1.413-1.408c-.78 0-1.413.63-1.413 1.408a1.41 1.41 0 001.413 1.408zm8.183 6.452a1.088 1.088 0 00-.295-.462.98.98 0 00-.464-.295 1.233 1.233 0 00-.549-.126 2.333 2.333 0 01-.38.042 1.59 1.59 0 00-.632.358l-.232.294c-.127.21-.19.462-.19.714v.105c0 .19.042.379.127.547.063.168.147.336.295.462a.98.98 0 00.464.294c.169.084.359.126.548.126.127-.02.253-.042.38-.042.232-.063.443-.189.633-.357.084-.105.147-.189.232-.294.126-.21.19-.462.19-.715v-.105c0-.189-.043-.378-.127-.546zm-4.197 12.02c.78 0 1.413-.63 1.413-1.408a1.41 1.41 0 00-1.413-1.408c-.78 0-1.413.63-1.413 1.408a1.41 1.41 0 001.413 1.408zm12.414-1.664a1.41 1.41 0 001.332-1.484 1.411 1.411 0 00-1.489-1.327 1.41 1.41 0 00-1.332 1.484c.043.776.71 1.37 1.49 1.327zm2.243-12.5c.78 0 1.413-.63 1.413-1.408a1.41 1.41 0 00-1.413-1.408c-.78 0-1.413.63-1.413 1.408a1.41 1.41 0 001.413 1.408zm-1.328-5.632c.78 0 1.413-.63 1.413-1.408a1.41 1.41 0 00-1.413-1.408c-.78 0-1.413.63-1.413 1.408a1.41 1.41 0 001.413 1.408zm25.961-1.786a.376.376 0 00-.106-.147.37.37 0 01-.105-.084.564.564 0 00-.253-.063c-.042 0-.084.02-.127.02a.437.437 0 00-.21.127c-.022.02-.043.042-.085.084a.641.641 0 00-.105.147c-.021.063-.043.126-.043.19 0 .062.022.125.043.188.02.063.063.105.105.147a.369.369 0 01.106.084.563.563 0 00.253.063c.042 0 .084-.02.126-.02a.438.438 0 00.211-.127l.084-.084a.64.64 0 00.106-.147c.021-.063.042-.126.042-.189a.611.611 0 00-.042-.19zm-2.594 2.585c-.633 0-.633.966 0 .966s.633-.966 0-.966zm-.443 4.35c-.633 0-.633.966 0 .966s.633-.966 0-.966zm6.369-3.552a.378.378 0 00-.105-.147.369.369 0 01-.106-.085.563.563 0 00-.253-.063c-.042 0-.084.022-.127.022a.439.439 0 00-.21.126l-.085.084a.637.637 0 00-.105.147.611.611 0 00-.042.189c0 .063.02.126.042.189.02.063.063.105.105.147.042.021.063.042.106.084a.564.564 0 00.253.063c.042 0 .084-.02.126-.02a.437.437 0 00.211-.127l.084-.084a.643.643 0 00.106-.147c.021-.063.042-.126.042-.19a.611.611 0 00-.042-.188zm4.218-.21c-.633 0-.633.967 0 .967s.633-.967 0-.967zm-.337-2.333a.338.338 0 00-.063-.19.545.545 0 00-.296-.23c-.042 0-.084-.021-.126-.021a.564.564 0 00-.253.063c-.043.02-.106.042-.148.084a.19.19 0 00-.127.126.422.422 0 00-.084.168.29.29 0 000 .189c0 .063.021.126.063.19.064.104.17.188.296.23.042 0 .084.021.126.021a.563.563 0 00.253-.063c.042-.02.106-.042.148-.084a.19.19 0 00.126-.126.41.41 0 00.085-.168v-.19zm1.37 5.863c-.633 0-.633.967 0 .967s.633-.967 0-.967zm2.003-1.555c-.632 0-.632.967 0 .967.633.02.633-.967 0-.967zm1.034 4.813c-.021-.063-.063-.105-.105-.147a.37.37 0 01-.106-.084.562.562 0 00-.253-.063c-.042 0-.084.02-.127.02a.439.439 0 00-.21.127l-.085.084a.641.641 0 00-.105.147.611.611 0 00-.042.189c0 .063.02.126.042.19.02.062.063.104.105.146a.37.37 0 01.106.084.564.564 0 00.253.063c.042 0 .084-.02.126-.02a.438.438 0 00.211-.127l.085-.084a.641.641 0 00.105-.147.611.611 0 00.042-.189.597.597 0 00-.042-.19zm-1.835 2.122c-.042-.126-.105-.231-.232-.294-.042-.021-.105-.042-.147-.084a.341.341 0 00-.19-.063.292.292 0 00-.19 0 .424.424 0 00-.169.084.358.358 0 00-.126.126.471.471 0 00-.042.378c.042.126.105.231.232.294.042.021.105.043.147.084a.34.34 0 00.19.064.294.294 0 00.19 0 .425.425 0 00.169-.085.357.357 0 00.126-.126.47.47 0 00.042-.378zm.422 2.143c-.633 0-.633.967 0 .967.633.021.633-.966 0-.966zm-3.417-.44c-.105-.085-.21-.148-.337-.148h-.147a.498.498 0 00-.338.147.641.641 0 00-.105.148c-.021.063-.043.126-.043.189 0 .126.043.252.148.336.106.084.211.147.338.147h.147a.499.499 0 00.338-.147.64.64 0 00.105-.147c.021-.063.042-.126.042-.19a.614.614 0 00-.147-.336zm.085 3.909c-.633 0-.633.966 0 .966.633.021.633-.966 0-.966zm-3.986 1.996c-.633 0-.633.966 0 .966.611 0 .611-.966 0-.966zm-2.847.21c-.105-.084-.21-.148-.337-.148h-.148a.499.499 0 00-.337.148.637.637 0 00-.106.147c-.02.063-.042.126-.042.189 0 .126.042.252.148.336.105.084.21.147.337.147h.148a.498.498 0 00.337-.147.638.638 0 00.105-.147.611.611 0 00.043-.19.48.48 0 00-.148-.335zm-.843-2.207a.437.437 0 00-.127-.21l-.084-.084a.638.638 0 00-.148-.105c-.063-.02-.126-.042-.19-.042-.063 0-.126.021-.19.042a.377.377 0 00-.147.105.369.369 0 01-.084.105.558.558 0 00-.064.252c0 .042.021.084.021.127a.435.435 0 00.127.21l.084.084a.643.643 0 00.148.105c.063.02.126.042.19.042.063 0 .126-.021.19-.042.063-.021.105-.063.147-.105.021-.042.042-.063.084-.105a.558.558 0 00.064-.253c0-.042 0-.084-.021-.126zm3.458-1.471c-.633 0-.633.966 0 .966s.633-.966 0-.966zm2.067 1.323c-.633 0-.633.967 0 .967.632.021.632-.966 0-.966zm-2.13-3.382a.376.376 0 00-.106-.147.638.638 0 00-.147-.105.619.619 0 00-.19-.042c-.042 0-.085.02-.127.02a.438.438 0 00-.21.127c-.022.042-.043.063-.085.105a.558.558 0 00-.063.252v.084c0 .063.02.126.042.19a.378.378 0 00.105.146.642.642 0 00.148.105.617.617 0 00.19.043c.042 0 .084-.021.126-.021a.438.438 0 00.211-.127.357.357 0 01.085-.105.559.559 0 00.063-.252v-.084c0-.063-.021-.126-.042-.189zm-3.775-.736c-.633 0-.633.967 0 .967.611 0 .611-.967 0-.967zm1.139-2.816a.422.422 0 00-.084-.168.358.358 0 00-.127-.126.476.476 0 00-.38-.042.468.468 0 00-.295.231c-.02.042-.042.105-.084.147a.338.338 0 00-.063.19.29.29 0 000 .188.421.421 0 00.084.168.356.356 0 00.127.127.475.475 0 00.38.042c.126-.042.231-.105.294-.232.022-.041.043-.105.085-.147a.338.338 0 00.063-.189.29.29 0 000-.189zm-4.513-6.136a.559.559 0 00-.064-.252c-.02-.042-.042-.063-.084-.105a.438.438 0 00-.211-.126c-.021 0-.105-.021-.127-.021l-.126.02s-.105.043-.127.043l-.042.042c-.02.02-.042.02-.063.042l-.084.105s-.043.105-.043.126c0 .021-.02.105-.02.126l.02.126c0 .021.022.042.022.063 0 .021.02.042.02.063 0 0 .064.105.085.105l.105.085s.106.041.127.041l.127.021c.02 0 .126-.02.126-.02a.423.423 0 00.169-.085.357.357 0 00.126-.126.338.338 0 00.063-.189v-.084zm4.765 1.198a.376.376 0 00-.105-.147.647.647 0 00-.147-.106c-.064-.02-.127-.041-.19-.041-.042 0-.084.02-.127.02a.439.439 0 00-.21.127.369.369 0 01-.085.105.558.558 0 00-.063.252v.084c0 .063.021.126.042.19a.38.38 0 00.105.146.641.641 0 00.148.105.615.615 0 00.19.042c.042 0 .084-.02.126-.02a.439.439 0 00.211-.127.368.368 0 01.085-.105.559.559 0 00.063-.252v-.084c0-.063 0-.126-.042-.19zm2.595-5.528a.376.376 0 00-.106-.146c-.042-.021-.063-.042-.105-.084a.564.564 0 00-.253-.063c-.043 0-.085.02-.127.02a.437.437 0 00-.21.127l-.085.084a.64.64 0 00-.106.147c-.02.063-.042.126-.042.19 0 .062.021.125.042.188a.377.377 0 00.106.147.369.369 0 01.105.084.563.563 0 00.253.063c.043 0 .085-.02.127-.02a.439.439 0 00.21-.127c.022-.02.043-.042.085-.084a.637.637 0 00.106-.147.611.611 0 00.042-.189c0-.063 0-.126-.042-.19zm2.995 5.212a.338.338 0 00-.064-.189.546.546 0 00-.295-.23c-.042 0-.084-.022-.126-.022a.563.563 0 00-.254.063c-.042.021-.105.042-.147.084a.19.19 0 00-.127.126.422.422 0 00-.084.168.29.29 0 000 .19c0 .063.021.126.063.189a.543.543 0 00.295.23c.043 0 .085.022.127.022a.564.564 0 00.253-.063c.042-.021.106-.042.148-.084a.19.19 0 00.126-.126.41.41 0 00.085-.168.29.29 0 000-.19zm-.401-3.005a.378.378 0 00-.106-.147.369.369 0 01-.105-.084.563.563 0 00-.253-.063c-.042 0-.084.021-.127.021a.439.439 0 00-.21.126l-.085.084a.637.637 0 00-.105.148.611.611 0 00-.043.189c0 .063.022.126.043.189.02.063.063.105.105.147.042.02.063.042.105.084a.564.564 0 00.254.063c.042 0 .084-.021.126-.021a.437.437 0 00.211-.126l.084-.084a.643.643 0 00.106-.147c.02-.063.042-.126.042-.19 0-.063 0-.126-.042-.189zm4.218.085c-.633 0-.633.966 0 .966s.633-.966 0-.966zm-12.042 8.174a.436.436 0 00-.127-.21l-.084-.084a.64.64 0 00-.148-.105.616.616 0 00-.19-.043.615.615 0 00-.19.043.378.378 0 00-.147.105.367.367 0 01-.085.105.558.558 0 00-.063.252c0 .042.021.084.021.126a.436.436 0 00.127.21l.084.084a.644.644 0 00.148.105.619.619 0 00.19.042.617.617 0 00.19-.042.38.38 0 00.147-.105.366.366 0 01.084-.105.558.558 0 00.064-.252c0-.042-.021-.084-.021-.126zm12.042 6.788c-.022-.063-.064-.105-.106-.147a.642.642 0 00-.148-.105.617.617 0 00-.19-.042c-.041 0-.084.021-.126.021a.437.437 0 00-.21.126c-.022.042-.043.063-.085.105a.559.559 0 00-.063.252v.085c0 .063.02.126.042.189.02.063.063.105.105.147a.638.638 0 00.148.105.619.619 0 00.19.042c.042 0 .084-.021.126-.021a.438.438 0 00.211-.126c.021-.042.042-.063.084-.105a.558.558 0 00.064-.252v-.085c0-.063 0-.126-.042-.189zm-3.332 2.879a.376.376 0 00-.106-.147.641.641 0 00-.148-.105c-.063-.021-.126-.042-.19-.042-.041 0-.084.021-.126.021a.437.437 0 00-.21.126c-.022.042-.043.063-.085.105a.557.557 0 00-.063.252v.084c0 .063.02.127.042.19.02.063.063.105.105.147a.636.636 0 00.148.105c.063.02.126.042.19.042.042 0 .084-.021.126-.021a.437.437 0 00.211-.126.357.357 0 01.085-.105.558.558 0 00.063-.253v-.084c0-.063 0-.126-.042-.189zm-.359-4.497c-.633 0-.633.966 0 .966.611 0 .611-.966 0-.966z" fill="#fff"></path><path d="M42.875 4.308c-.295.336-.632.63-1.075.84-.654.295-1.35.4-2.046.4-.654 0-1.582.063-2.172-.273-.485-.274-.844-.82-1.16-1.303-.148-.147-.274-.294-.337-.463a7.21 7.21 0 011.644-.714c.654.504 1.287.925 2.194 1.009a3.841 3.841 0 002.172-.4c.316.253.57.547.78.904zm1.477 8.742c-.021-.021 0-.021 0 0-.148-.19-.4-.273-.612-.147-.084.042-.147.084-.19.168-1.307 1.345-2.657 2.71-4.112 3.888-1.202.966-2.636 1.47-4.112 1.87.063.4.126.798.168 1.198 2.11-.042 4.176-.63 6.116-1.43.485-.188 1.097-.378 1.603-.672h.106c.316-.02.674.063.927-.189a.577.577 0 00.17-.315c0-1.492-.022-2.942-.064-4.371zm-4.324 10.045c-1.054-.105-2.045.063-3.079.19-.316.041-.654.02-.991.02.063.568.148 1.114.21 1.681.866-.02 1.751.19 2.616.4 1.202.294 2.425.61 3.606 1.05.506.19 1.013.42 1.413.778.253.231.422.546.696.735 0-1.155.021-2.311.021-3.488-1.434-.672-2.931-1.198-4.492-1.366zm-4.935-5.863c-.147-.904-.274-1.786-.443-2.69.338-.315.717-.61 1.118-.883.675-.44 1.898-1.26 2.7-.651 1.623 1.219-1.899 3.446-3.375 4.224zm6.117 13.596c-.676.021-1.372.021-2.047.021-.21-.189-.4-.399-.653-.546a3.94 3.94 0 00-.528-.21c-.232-.042-.485-.063-.717-.147l-.19-.063a2.326 2.326 0 00-.379-.042l-.148-1.513c.064 0 .106 0 .17.02 1.159-.041 2.298.358 3.205 1.051a.497.497 0 01.19.127l.168.168c.359.315.675.693.928 1.134zm1.644-21.897a3.811 3.811 0 01-1.223 1.303 5.598 5.598 0 01-1.329-.336c-.611-.231-1.835-.63-1.771-1.45.084-1.03 1.307-.61 1.856-.294.105.063.21.147.316.21.696.189 1.413.378 2.151.567z" fill="#F75A1B"></path><path d="M77.019 16.14c-1.139-.316-2.32.083-3.269.84-.106.084-.232.19-.338.294-.19-.525-.084-1.093-.253-1.618-.253-.799-1.16-1.26-1.602-1.954-.59-.967-.169-1.892-.106-2.921.106-1.408-1.413-1.682-2.51-1.787H68.9a8.328 8.328 0 011.519-.714c.105.02.19.063.295.084 0-.063.021-.147.063-.21 1.666-.526 3.375-.42 5.083-.084.084.02.169.042.253.042.063.252.084.483.084.735.296 1.009-.147 2.039-.57 2.963.212.63.55 1.22.676 1.913.042.273.084.525.105.777.021.042.064.084.085.126a3.62 3.62 0 01.527 1.513zm-4.366 4.35c-.21-.085-.4-.21-.59-.379-.443-.42-.907-.273-1.477-.294-.885-.021-1.75-.42-2.383-1.03a3.32 3.32 0 01-.738-1.113c-.19-.484-.253-1.03-.506-1.493-.38-.693-.991-1.176-1.708-1.45-.127-.23-.253-.483-.38-.714l.127-.378h.02a8.622 8.622 0 011.603-2.711c.886.084 1.856.252 2.531.777.696.526.823 1.408.865 2.228.042 1.008.105 2.227 1.308 2.48.358.063.632.189.864.399h.042c.443-.021.844.21 1.118.546-.422.42-.801.925-.928 1.492-.148.589-.042 1.135.232 1.64zm10.039-5.317c-.19-.84-.885-1.22-1.265-1.955-.274-.525.084-.84.274-1.303.148-.336.232-.693.253-1.071v-.021c-.443-.568-1.033-1.03-1.708-1.387-.654-.357-1.35-.61-2.067-.82.064.294.064.61-.042.946-.359 1.156-1.413 2.101-1.033 3.446.38 1.282 1.813 1.745 2.425 2.88.359.65.295 1.344.169 2.038.57.294 1.16.378 1.856-.147.084-.063.168-.148.253-.21 0-.021.02-.043.02-.064v.043c.507-.526.739-1.282.865-1.997.022-.063.022-.126.043-.21a.646.646 0 00-.043-.168zm-4.597 8.196a.443.443 0 01-.38.126c-.527-.063-1.097-.126-1.603-.063a1.228 1.228 0 01-.548.273c-.127.02-.253.063-.38.084-.084.063-.168.126-.253.21-.696.715-1.497.988-2.51 1.093a7.15 7.15 0 01-3.12-.378 7.592 7.592 0 01-1.33-.61 6.427 6.427 0 01-.758-.4c-.211-.062-.422-.062-.591.106-.042.063-.105.084-.148.105-.02 0-.042-.021-.063-.021.169-1.05.232-2.123.232-3.152a14.7 14.7 0 00-.105-1.681c.506.168.864.525 1.202.903.232.063.464.21.611.357.127.105.211.253.275.4.253.126.463.336.59.546.127.021.232.042.38.063.843.021 1.666-.315 2.53-.294.422.02.78.126 1.181.252.022 0 .022 0 .043.021.97.883 2.362 1.282 3.585 1.66.38.147.78.273 1.16.4zm4.239 5.757c-.021.21-.042.4-.085.588a1.922 1.922 0 00-1.202-.44c-.527 0-.949.188-1.476.062-.4-.084-.78-.189-1.18-.231-.275.042-.528.063-.802.105a.864.864 0 01-.464-.063 3.527 3.527 0 00-.675.168c-1.012.315-1.75 1.198-2.805 1.366-.738.126-1.455-.02-2.151-.273a2.85 2.85 0 00.4-2.27 3.35 3.35 0 00-.674-1.303c.611-.084 1.265.021 1.919.168.295.064.696.148.97-.063.19-.168.21-.483.359-.693.253-.4.738-.63 1.18-.715.17-.041.359-.063.528-.084.949-.42 1.834-.21 2.826-.084.21.021.422.063.632.063.127-.042.254-.105.38-.189.106-.189.274-.336.485-.462.084-.042.169-.084.253-.105.148.126.295.252.422.4.949 1.07 1.307 2.626 1.16 4.055zM69.09 36.902a37.977 37.977 0 01-1.54-.084c-.844-.084-1.582-.336-2.13-1.008-.95-1.135-.844-2.775.295-3.741a2.72 2.72 0 011.034-.547c-.022.043-.022.085-.043.106-.316.546.359.903.633 1.302.295.442.274.883.4 1.366.148.526.654.946.907 1.43.19.378.338.756.443 1.176zm11.788-4.35c-1.223 1.555-3.037 2.71-4.808 3.404-.506.21-1.012.357-1.54.504-.38-.23-.822-.399-1.117-.546-.739-.4-1.456-.778-2.194-1.177-1.18-.651-2.889-1.555-3.184-3.005a.351.351 0 01.02-.252c.676.105 1.287.315 1.962.063.359-.126.675-.315.95-.546.4.336.737.588 1.244.861.19.042.38.063.569.063.548.021 1.076-.126 1.603-.126.527-.02.97.126 1.455.336.612.274 1.076.127 1.687-.02a5.525 5.525 0 011.666-.106c.633.063 1.266.19 1.687.547z" fill="#41ACE6"></path><path d="M81.828 30.976a6.785 6.785 0 01-.464.861c-.042-.02-.106-.042-.148-.063-.316-.147-.59-.399-.949-.42-.801-.02-1.582-.063-2.383-.231-.612-.126-.359-1.05.253-.946.802.147 1.603.126 2.425.19.338.041.57.23.865.399.148.105.274.168.4.21z" fill="#41ACE6"></path><path d="M24.507 38.709c-4.197 2.228-6.18 6.683-7.782 10.928-.95.252-1.898.42-2.869.525a25.958 25.958 0 012.869-9.835 68.52 68.52 0 014.597-1.429c-.021.042-.021.063-.063.105a.557.557 0 01.126-.105 43.145 43.145 0 013.354-.756.453.453 0 01-.232.567zm5.799 8.532c-4.133-.441-8.351.567-11.894 2.732a.543.543 0 01-.042.357c-.612 1.114-1.202 2.228-1.793 3.342a27.07 27.07 0 0111.177-.064.64.64 0 010-.483c.697-1.64 1.413-3.257 2.13-4.896-.02-.021-.02-.042-.042-.063h.064c.126-.295.253-.61.4-.925zM22.524 57.98a28.827 28.827 0 00-4.155-1.513c-.948-.252-1.982-.526-2.994-.484a88.074 88.074 0 00-1.392 2.837v.042h-.021c-.063.126-.127.273-.19.4-.084.168-.148.315-.232.483 1.73.61 3.353 1.513 4.787 2.648.19.02.401.02.59.02 2.995.127 5.99.19 8.985.295.59.021 1.202.063 1.793.084a26.634 26.634 0 00-7.17-4.812z" fill="#7CB413"></path><path d="M39.164 42.072c-.76 0-1.413.651-1.413 1.408 0 .756.654 1.408 1.413 1.408.76 0 1.413-.652 1.413-1.408 0-.757-.654-1.408-1.413-1.408zm8.14 9.015a1.581 1.581 0 00-.358-.63c-.106-.085-.19-.148-.295-.232a1.406 1.406 0 00-.717-.189h-.106c-.19 0-.38.042-.548.126a1.094 1.094 0 00-.464.294.974.974 0 00-.295.463 1.222 1.222 0 00-.127.546c.021.126.042.252.042.378.063.232.19.442.359.63.105.085.19.148.295.232.21.126.464.19.717.19h.105c.19 0 .38-.043.549-.127.169-.063.337-.147.464-.294a.974.974 0 00.295-.462c.084-.169.127-.358.127-.547a2.211 2.211 0 01-.043-.378zm-6.348 4.308a1.58 1.58 0 00-.358-.63c-.106-.084-.19-.147-.295-.231a1.406 1.406 0 00-.718-.19h-.105c-.19 0-.38.043-.548.127a1.092 1.092 0 00-.464.294.975.975 0 00-.296.462 1.224 1.224 0 00-.126.547c.021.126.042.252.042.378.063.231.19.441.359.63.105.085.19.148.295.232.21.126.464.189.717.189h.105c.19 0 .38-.042.549-.126.168-.063.337-.148.464-.295a.975.975 0 00.295-.462c.084-.168.126-.357.126-.546 0-.126-.02-.252-.042-.379zm-.548-14.9a.436.436 0 00-.127-.21.37.37 0 01-.105-.084.564.564 0 00-.253-.063h-.105a.617.617 0 00-.19.042.38.38 0 00-.148.105.641.641 0 00-.105.147.611.611 0 00-.042.19c0 .042.02.084.02.126a.437.437 0 00.127.21c.042.02.063.042.106.084a.563.563 0 00.253.063h.105a.62.62 0 00.19-.042.377.377 0 00.148-.105.64.64 0 00.105-.147c.021-.063.042-.126.042-.19-.02-.041-.02-.084-.02-.126zm-3.248 3.846c-.632 0-.632.967 0 .967.633 0 .633-.967 0-.967zm3.438.989c-.633 0-.633.966 0 .966.632 0 .632-.967 0-.967zm5.778 3.361a.498.498 0 00-.337-.147.42.42 0 00-.338.148l-.232.23a.495.495 0 00-.147.337.5.5 0 00.485.483.42.42 0 00.337-.147l.232-.231a.495.495 0 00.148-.336c0-.126-.042-.273-.148-.337zM44.394 53a.435.435 0 00-.127-.21.369.369 0 01-.105-.085.563.563 0 00-.253-.063h-.106c-.063 0-.126.021-.19.042-.063.021-.105.063-.147.105a.639.639 0 00-.105.147c-.021.063-.043.126-.043.19 0 .041.022.084.022.126a.435.435 0 00.126.21.369.369 0 01.105.084.562.562 0 00.254.063h.105a.616.616 0 00.19-.042.379.379 0 00.147-.105.64.64 0 00.106-.147c.02-.063.042-.127.042-.19 0-.042 0-.084-.021-.126zm1.202.63c-.633 0-.633.967 0 .967.632 0 .632-.967 0-.967zm-5.546-.547c-.633 0-.633.967 0 .967.611 0 .632-.967 0-.967z" fill="#fff"></path><path d="M37.498 55.29c-.633 0-.633.967 0 .967.611 0 .611-.966 0-.966zm4.091 1.219c-.633 0-.633.966 0 .966s.633-.966 0-.966zm4.956-13.219c-.633 0-.633.967 0 .967s.633-.966 0-.966zm-9.364 7.755a.435.435 0 00-.126-.21l-.106-.105a.642.642 0 00-.147-.105c-.063-.022-.127-.042-.19-.042s-.127.02-.19.041c-.063.022-.105.064-.147.106a.368.368 0 01-.085.105.558.558 0 00-.063.252c0 .042.021.084.021.126a.436.436 0 00.127.21l.105.105a.645.645 0 00.148.105.617.617 0 00.19.042.619.619 0 00.19-.042c.063-.02.105-.063.147-.105a.37.37 0 01.084-.105.558.558 0 00.063-.252c0-.021-.02-.063-.02-.126z" fill="#fff"></path><path d="M68.288 41.357c-.633 0-.633.967 0 .967s.633-.967 0-.967zm6.475.504a.436.436 0 00-.127-.21.371.371 0 01-.105-.084.562.562 0 00-.254-.063h-.084a.617.617 0 00-.19.042c-.063.02-.105.063-.147.105a.641.641 0 00-.106.147c-.02.063-.042.126-.042.19 0 .041.021.083.021.125a.437.437 0 00.127.21c.042.021.063.042.105.084a.562.562 0 00.253.064h.085a.617.617 0 00.19-.042.379.379 0 00.147-.105.64.64 0 00.105-.148.588.588 0 00.043-.189c-.022-.042-.022-.084-.022-.126zm-4.619 1.619c-.633 0-.633.966 0 .966.633.021.633-.966 0-.966zm-2.384 4.202c-.632 0-.632.967 0 .967.633.02.633-.967 0-.967zm5.927 1.996c-.632 0-.632.967 0 .967.633.02.633-.967 0-.967zm-3.332 1.492c-.021-.062-.064-.104-.106-.146a.636.636 0 00-.147-.105c-.064-.021-.127-.042-.19-.042-.042 0-.085.02-.127.02a.437.437 0 00-.21.127.369.369 0 01-.085.105.558.558 0 00-.063.252v.084c0 .063.02.126.042.189.021.063.063.105.105.147a.641.641 0 00.148.105.62.62 0 00.19.042c.042 0 .084-.02.126-.02a.437.437 0 00.211-.127.357.357 0 01.085-.105.557.557 0 00.063-.252v-.084c.021-.084 0-.147-.042-.19zm-2.257 4.414a.436.436 0 00-.126-.21l-.085-.084a.641.641 0 00-.147-.105c-.063-.021-.127-.042-.19-.042s-.126.02-.19.042c-.063.02-.105.063-.147.105-.021.042-.043.063-.085.105a.557.557 0 00-.063.252c0 .042.021.084.021.126a.436.436 0 00.127.21l.084.084a.64.64 0 00.148.105.619.619 0 00.19.042.619.619 0 00.19-.042.378.378 0 00.147-.105c.02-.042.042-.063.084-.105a.558.558 0 00.063-.252c-.02-.042-.02-.084-.02-.126zm2.784 1.849c-.021-.063-.063-.105-.105-.147-.043-.02-.064-.042-.106-.084a.563.563 0 00-.253-.063c-.042 0-.084.021-.127.021a.437.437 0 00-.21.126l-.085.084a.64.64 0 00-.105.147c-.021.063-.042.127-.042.19s.02.126.042.189a.377.377 0 00.105.147.37.37 0 01.106.084.564.564 0 00.253.063c.042 0 .084-.021.126-.021a.438.438 0 00.211-.126l.085-.084a.639.639 0 00.105-.147.611.611 0 00.042-.19.611.611 0 00-.042-.189zm4.45-.735c-.633 0-.633.966 0 .966.612 0 .612-.966 0-.966zm-7.782-4.581c-.632 0-.632.966 0 .966.633 0 .633-.966 0-.966z" fill="#A8FF05"></path><path d="M85.202 12.714c-.021-2.165-.844-3.95-2.362-5.17-1.519-1.198-3.375-1.723-4.64-2.038-1.455-.357-3.037-.673-4.64-.673h-.105c-.422 0-.823.021-1.202.084-3.311.42-6.39 2.396-8.12 5.233a10.344 10.344 0 00-3.901-2.312c-1.582-.525-3.248-.693-4.513-.777a23.501 23.501 0 00-1.687-.063h-.211c-1.034 0-1.962.084-2.868.252-1.814.315-3.438 1.009-4.746 1.975a1.665 1.665 0 00-.527-.399l.063-2.564c.043-1.534-.38-3.005-1.202-4.055C43.403.799 41.631 0 39.564 0h-.084c-2.046.021-4.134.82-5.547 2.122-1.117 1.01-1.771 2.417-1.813 3.846v.19l-1.603-.127c-.211-.02-.443-.02-.654-.042-.865-.063-1.75-.126-2.636-.126h-.19c-.422 0-.822.021-1.18.063-1.857.168-2.658 1.618-3.228 2.69-.084.168-.19.336-.274.483l-2.277 3.951a30.597 30.597 0 00-1.076-5.148c-.38-1.261-1.054-3.594-3.627-3.741H15.1c-.759 0-1.497.21-2.13.378-.147.042-.274.084-.421.105-.886.21-1.793.463-2.7.694A226.474 226.474 0 003.67 7.082c-.696.21-1.16.82-1.181 1.534L2.32 14.92c0 .148.021.295.042.442 1.118 4.75 2.3 9.54 3.48 14.29.633 2.521 1.223 4.833 1.772 7.04l.063.21c.295 1.135.57 2.248.865 3.383.042.168.084.336.126.526-1.18.735-1.518 1.744-1.581 2.521-.022.147-.022.316-.022.505l-.19 6.283c-.02.84.085 1.66.17 2.459.02.126.02.252.042.4.02.104.02.21.042.335.105.925.21 1.976.759 2.921.949 1.66 2.7 1.703 3.29 1.724h1.096c-.126.252-.231.504-.358.777l-.127.252c-.147.294-.337.673-.421 1.114a2.565 2.565 0 00-.043.4l-.19 6.283c-.02 1.008.655 1.828 1.793 2.164 1.455.442 3.058.673 5.188.799 2.447.147 4.914.168 7.318.21.991.021 2.004.021 3.016.042.211 0 .443.021.696.021.337.021.675.042 1.033.042h.106c.316 0 .611-.021.886-.063.084-.021.168-.021.274-.042.02 0 .042-.021.063-.021l.19-.063c.021 0 .042-.021.063-.021a.778.778 0 00.232-.105c.021 0 .042-.021.063-.021.064-.021.127-.063.17-.084.02-.021.041-.021.062-.042a.757.757 0 00.211-.147s.021-.021.042-.021a1.17 1.17 0 01.17-.127l.041-.041.127-.127.042-.042c.042-.042.084-.105.127-.147l.02-.02.022-.043.042-.042c.021-.02.042-.063.063-.084.021-.02.021-.042.042-.063.021-.042.043-.063.064-.105.02-.021.02-.042.042-.063.02-.042.042-.063.063-.105 0-.021.021-.042.021-.042.021-.063.063-.105.085-.168.105-.231.231-.484.337-.715l.084-.21c.085-.189.17-.378.253-.567l.043-.105.02-.063c.106-.232.19-.442.296-.673l.042-.126.253-.567.085-.21c.063-.169.147-.337.21-.505l.085-.21c.042-.105.084-.231.147-.336a8.994 8.994 0 005.631 2.017h.085c.928 0 1.834-.168 2.678-.483.127-.042.253-.105.38-.147.02-.021.063-.021.084-.042l.021-.021.253-.126.127-.063c.084-.043.168-.084.253-.126l.02-.022c.043-.02.064-.042.085-.042l.316-.189c.022 0 .022-.02.043-.02.105-.064.21-.148.337-.232l.063-.063.021-.02c.085-.064.148-.106.232-.17a.457.457 0 00.106-.083c.063-.063.148-.105.21-.168l.022-.021c.021-.021.063-.042.084-.063.085-.063.169-.147.232-.21l.064-.064c.084-.084.19-.168.274-.273l.063-.063.021-.02c.063-.064.127-.127.19-.21.042-.043.063-.064.084-.106.064-.063.127-.126.169-.19 0 0 .063-.062.084-.104.064-.084.127-.147.19-.231l.021-.021c.211.924.443 1.849.738 2.753a1.651 1.651 0 001.582 1.155h4.407c.043 0 .106 0 .148-.02h.021c.043 0 .085 0 .127-.022h.042c.042 0 .084-.02.127-.02h.042c.063-.022.105-.022.148-.043l.042-.02c.042-.022.084-.022.147-.043l.042-.02c.064-.022.127-.043.17-.085l.041-.02c.042-.022.085-.043.148-.085.021-.02.042-.02.063-.042a.535.535 0 00.127-.105l.02-.021.022-.021c.063-.042.105-.105.169-.147.02-.021.02-.042.042-.042a.292.292 0 00.063-.084c.021-.021.042-.063.063-.084.022-.021.022-.042.043-.063.02-.042.063-.105.084-.147l.021-.021.021-.064c.042-.063.063-.147.084-.23 0-.022.022-.043.022-.064 0-.042.02-.084.02-.105 0-.02 0-.042.022-.084v-.063c.02-.084.02-.168.02-.231l.085-2.627c.021.021.042.021.042.042.612.526 1.203 1.03 1.814 1.534.063.063.148.126.232.19.506.44 1.202 1.071 2.172 1.176.148.021.295.021.443.021h.042c.59 0 1.16-.147 1.666-.273.17-.042.338-.084.485-.105.022 0 .064-.021.085-.021l.358-.063.148-.021s.063-.021.084-.021l.064-.021c.02 0 .063-.021.084-.021.021 0 .042-.021.063-.021.021 0 .063-.021.084-.021.022 0 .043-.021.064-.021.042-.021.063-.021.105-.042.021 0 .042-.021.063-.021.043-.021.064-.021.106-.042.021 0 .042-.021.063-.021.021-.021.063-.021.085-.042.168.588.442 1.282 1.202 1.744.632.4 1.328.441 1.919.441h.569a41.449 41.449 0 004.83-.336 54.65 54.65 0 002.32-.357c.105-.021.21-.042.337-.063.633-.084 1.497-.232 2.13-.82l.19-.189.063-.084.021-.021.127-.19.02-.041a.627.627 0 00.085-.168l.021-.063c0-.021.021-.042.021-.063.021-.022.021-.064.042-.084 0-.021.022-.043.022-.064.02-.042.02-.063.042-.105 0-.02.02-.042.02-.063 0-.02.022-.063.022-.105l.021-.063c0-.02.021-.063.021-.084v-.084c.021-.063.021-.126.021-.168v-.042c0-.042.021-.105.021-.168v-.021c0-.063 0-.126.021-.168v-.211l.19-6.283v-.672a9.007 9.007 0 00-.485-2.648l.084-3.279a3.46 3.46 0 00-.168-1.218l.168-6.137c.064-.042.127-.063.19-.105a.435.435 0 00.106-.063.854.854 0 01.19-.105s.084-.042.105-.063l.19-.126s.084-.042.105-.063c.085-.042.148-.105.232-.147l.064-.042c.084-.063.19-.126.274-.21l.084-.063c.063-.042.127-.105.19-.147l.105-.084a.979.979 0 00.169-.148c.042-.02.063-.063.106-.084.063-.042.105-.084.168-.147 0 0 .063-.063.106-.084.063-.042.105-.105.168-.147l.085-.084.19-.19.063-.062c.084-.084.168-.168.232-.252l.063-.063c.063-.063.106-.127.169-.19l.084-.084c.042-.063.085-.105.148-.168.02-.042.063-.063.084-.105 0 0 .042-.063.063-.084.021-.02.021-.042.043-.063a1.16 1.16 0 01.147-.189c.021-.042.063-.084.085-.126l.126-.19.021-.041a.462.462 0 00.063-.105c.043-.084.085-.147.148-.232l.021-.02a.159.159 0 00.042-.084c.064-.127.127-.232.19-.337.042-.084.084-.147.127-.23l.042-.064c.02-.063.042-.105.063-.147 0-.021.021-.042.021-.042 0-.021.021-.021.021-.042.063-.126.106-.252.148-.357l.021-.063.126-.379.022-.042a2.79 2.79 0 00.105-.399v-.042c.042-.126.063-.252.084-.378 0 0 .021-.063.021-.084.022-.084.022-.169.043-.253 0-.02 0-.063.02-.084.022-.105.022-.189.043-.294v-.042c0-.084.021-.168.021-.273v-.084c0-.105.021-.21.021-.294l.169-6.263v-.042c.042-1.387-.295-2.732-.95-3.845.022-.021.064-.084.064-.084V23.6c.042-.064.084-.148.127-.21l.02-.043c.043-.084.085-.147.127-.23l.021-.022c.042-.063.064-.126.106-.189 0-.021 0-.021.02-.021l.022-.042a4.05 4.05 0 01.126-.294v-.021a2.06 2.06 0 00.106-.336l.021-.043v-.02c.021-.106.063-.19.084-.295v-.02c.021-.106.043-.21.064-.295v-.063c.02-.126.042-.273.063-.42v-.021c.021-.126.042-.274.063-.42v-.022c.021-.126.021-.273.042-.42v-.042c0-.126.021-.273.021-.4l.17-6.262v-.042c.126-.252.126-.462.126-.693zm-39.733.883c2.383-4.182 8.31-4.266 12.464-3.405 2.193.463 4.092 1.513 5.462 3.3.169.21.317.42.464.65 0 .169.106.295.232.38.928 1.575 1.413 3.362 1.54 5.19.168 2.375-.127 4.896-.992 7.124-.759 1.954-2.15 3.635-3.838 4.833-1.877 1.324-4.091 2.102-6.369 2.333a16.671 16.671 0 01-3.69-.021c-.612-.084-.844-.231-.95-.84-.105-.59-.168-1.178-.253-1.745-.674-4.854-1.202-9.961-4.028-14.122a.165.165 0 00-.084-.084l-.063-3.425c.02-.063.063-.105.105-.168zM35.937 3.594c1.455-.925 3.459-1.366 5.104-.778 1.729.61 2.446 2.228 2.404 3.972-.042 1.408-.717 2.795-1.92 3.51a.441.441 0 00-.274.146 2.515 2.515 0 01-.421.168c-.59.19-.338 1.135.253.946a3.58 3.58 0 00.653-.273l2.552.126c.19 6.41.232 12.84.148 19.25a49.013 49.013 0 01-7.656.104 220.037 220.037 0 00-2.34-17.42.388.388 0 00-.19-.295c.337-.735.675-1.45 1.012-2.206.21-.484.464-1.01.422-1.555-.042-.61-.485-1.01-1.055-1.177l-.253-.063a.48.48 0 00-.02-.379c-.718-1.555.252-3.236 1.58-4.076zM6.2 16.434a3999.63 3999.63 0 01-1.645-7.272c3.121-.903 6.242-1.765 9.406-2.48.653-.146 1.476-.336 2.003.19.485.483.612 1.282.802 1.912a30.717 30.717 0 011.075 10.402c-.253.526.548.988.865.463 1.455-2.459 2.889-4.918 4.344-7.397.338-.568.654-1.114.991-1.682.338-.588.654-1.303 1.097-1.807.4-.462 1.16-.336 1.708-.336l2.11.063c1.412.063 2.804.19 4.196.357.38.042 1.37 0 1.54.4.105.23-.085.609-.17.798-.147.336-.294.652-.442.988a78.55 78.55 0 01-3.522 6.893 76.028 76.028 0 01-4.766 7.292c-.38.504.485.987.843.483.38-.504.739-1.03 1.097-1.534a51.41 51.41 0 013.08 6.2l-3.966 2.017a97.05 97.05 0 01-2.088 1.05c-.421.21-.59.19-.99-.063a6.081 6.081 0 01-.718-.567c-1.687-1.534-2.784-3.678-4.83-4.791-.316-.169-.737.042-.737.42.084 2.585.02 5.19-.232 7.775a15.13 15.13 0 01-2.91.547c-.549.042-1.097.063-1.625.063-.232 0-.485-.021-.717-.021-.232-.021-.696.042-.885-.105-.19-.126-.232-.589-.296-.799-.063-.273-.147-.567-.21-.84-.148-.568-.275-1.135-.422-1.682-.274-1.134-.549-2.248-.823-3.383-1.054-4.518-2.13-9.036-3.163-13.555zm27.753 38.75c-.232.715-.548 1.409-.843 2.102a148.925 148.925 0 01-1.835 4.203c-.253.546-.443 1.24-1.139 1.26-.738.043-1.497-.041-2.214-.062-2.995-.084-5.99-.147-8.984-.294-1.477-.063-2.974-.168-4.429-.484a13.46 13.46 0 01-.886-.21c-.168-.042-.358-.105-.527-.147-.253-.084-.274-.02-.274-.273 0-.252.295-.63.4-.862l.57-1.198c1.434-3.026 2.974-5.989 4.576-8.93.17-.316-.042-.631-.316-.715-.105-.147-.274-.252-.506-.168-1.814.525-3.67.84-5.568.882-.738.021-1.919.19-2.467-.42-.464-.526-.506-1.387-.59-2.06a35.028 35.028 0 01-.233-2.963c-.02-.42-.063-.903.211-1.26.211-.274.59-.442.907-.568a110.787 110.787 0 015.188-2.06c3.48-1.302 7.044-2.416 10.714-3.004a32.708 32.708 0 015.546-.42c.443 0 .886 0 1.308.062.527.063.59.337.59.82.021.904-.127 1.786-.38 2.648-.569 2.06-1.518 3.992-2.362 5.926-.885 2.038-1.771 4.056-2.636 6.094-.105.252-.042.652.296.715l4.491.798c.338.063.697.126 1.034.19.084.02.253.02.337.083.148.127.106.127.021.316zm13.456-1.933c-.844 1.745-2.046 3.447-3.691 4.518-2.932 1.892-7.15.778-8.837-2.248l.064-.19c.126-.462 0-.84-.296-1.092a.48.48 0 00-.02-.378c-1.54-3.636-1.667-8.007.653-11.348 1.94-2.795 5.357-4.413 8.71-3.405 1.518.442 2.931 1.408 3.775 2.774 1.054 1.724 1.181 3.888 1.054 5.842a14.87 14.87 0 01-1.413 5.527zm17.124-1.807l-.506 4.203-.127.946c-.042.336 0 .483-.337.588-.696.21-1.476.315-2.172.441-.844.147-1.35-.525-1.92-1.03l-1.708-1.512a485.923 485.923 0 01-3.585-3.174c-.274-.252-.886-.105-.843.337.232 1.996.443 3.992.675 5.989.02.252.063.525.084.777 0 .063.02.147.02.21h-.041c-.148-.042-.422 0-.57 0h-.759c-.907-.02-1.814-.02-2.7-.042a29.994 29.994 0 01-1.096-6.115c-.021-.168-.084-.294-.21-.378.442-1.093.737-2.249.927-3.404.338-2.165.38-4.56-.38-6.641a7.05 7.05 0 00-.738-1.43 10.028 10.028 0 013.375-1.239 42.257 42.257 0 005.63 9.961c.233.294.802.336.886-.126.253-1.387.528-2.753.78-4.14.254-1.345.443-2.753.76-4.077.063-.273.147-.357.422-.4.295-.041.611-.041.927-.062.739-.021 1.477 0 2.215.063.506.042 1.096.063 1.54.357.527.357.484 1.072.421 1.618-.274 2.795-.654 5.527-.97 8.28zm12.063 6.725c-.168.252-.696.252-.97.294a36.159 36.159 0 01-4.977.61c-.801.041-1.624.062-2.425.062-.317 0-.717.042-1.013-.063-.358-.147-.38-.525-.463-.861-.422-1.64-.823-3.3-1.245-4.939a.508.508 0 00-.169-.273v-.042c.401-3.257.844-6.514 1.16-9.772.064-.651-.02-1.26-.274-1.744 1.582-.757 3.417-1.114 5.167-1.26 1.624-.148 3.48.062 4.577 1.428.801.988.78 2.858-.59 3.383-1.393.526-2.954-.483-4.303.337-1.076.651-1.266 2.227-.464 3.173 1.118 1.324 2.826.357 4.239.441 1.392.084 2.088 1.87 1.097 2.858-1.034 1.009-2.49.673-3.776.757-.674.042-1.434.231-1.792.84-.422.694-.106 1.555.485 2.039.76.61 1.771.504 2.657.315.991-.21 1.962-.42 2.953-.63a6.6 6.6 0 01.253 1.828c0 .294.042.966-.127 1.219zm6.116-42.618c-.147.84-.422 1.702-1.139 2.227-1.497 1.135-2.594-.546-3.754-1.281-1.328-.862-2.91-.463-4.07.483-.59.462-1.16 1.114-1.35 1.87-.19.757.064 1.471.549 2.06.97 1.198 2.594 1.66 3.986 2.08 1.476.462 3.1.883 4.175 2.06.992 1.071 1.35 2.626 1.203 4.055-.338 3.3-3.375 5.674-6.264 6.83-1.814.715-3.69.967-5.631.946-.949 0-1.92-.021-2.868-.105-.844-.084-1.582-.337-2.13-1.009-.95-1.135-.844-2.774.295-3.74.57-.463 1.308-.736 2.046-.652.78.084 1.476.378 2.277.105 1.392-.483 2.194-1.975 1.856-3.404a3.497 3.497 0 00-1.223-1.829c-.654-.504-1.434-.651-2.214-.84-.696-.168-1.519-.442-1.708-1.22-.043-.188-.17-.314-.338-.335.169-1.051.232-2.123.232-3.152-.021-2.375-.59-4.75-1.772-6.767.844-2.753 3.122-4.96 5.863-5.821 1.688-.547 3.417-.442 5.146-.105 1.498.294 3.016.63 4.366 1.345 1.328.714 2.32 1.786 2.53 3.32.148.988.085 1.975-.063 2.879z" fill="#572C54"></path><path d="M54.158 23.684c.063.189.253.378.464.357 1.518-.084 3.184.21 4.45-.82 1.096-.882 1.244-2.248.316-3.32-.843-.988-2.214-1.408-3.5-1.408-.612 0-1.393.063-1.92.4-.506.336-.696.924-.443 1.47.106 1.135.317 2.228.633 3.32zM40.809 47.703c-1.224.168-1.983 1.597-1.772 2.774.253 1.43 2.025 1.913 3.248 1.408 1.223-.504 1.919-2.017 1.244-3.236-.527-.946-1.75-1.303-2.72-.946z" fill="#572C54"></path></g><defs><clipPath id="clip0_1106_4785"><path fill="#fff" d="M0 0h87.5v70H0z"></path></clipPath></defs></svg>